<svg width="330" height="222" viewBox="0 0 330 222" fill="none" xmlns="http://www.w3.org/2000/svg">
<rect width="330" height="221.867" rx="10.6667" fill="#D2FD9C"/>
<path d="M121.905 132.822L121.95 126.792L151.245 100.332C153.765 98.0517 155.43 95.8917 156.24 93.8517C157.08 91.7817 157.5 89.6217 157.5 87.3717C157.5 84.7017 156.87 82.2867 155.61 80.1267C154.35 77.9667 152.655 76.2567 150.525 74.9967C148.395 73.7067 146.01 73.0617 143.37 73.0617C140.61 73.0617 138.15 73.7217 135.99 75.0417C133.83 76.3617 132.12 78.1017 130.86 80.2617C129.63 82.4217 129.03 84.7767 129.06 87.3267H122.31C122.31 83.3967 123.24 79.8717 125.1 76.7517C126.96 73.6317 129.48 71.1867 132.66 69.4167C135.84 67.6167 139.44 66.7167 143.46 66.7167C147.39 66.7167 150.915 67.6467 154.035 69.5067C157.185 71.3367 159.66 73.8267 161.46 76.9767C163.29 80.0967 164.205 83.5767 164.205 87.4167C164.205 90.1167 163.875 92.5017 163.215 94.5717C162.585 96.6117 161.58 98.5167 160.2 100.287C158.85 102.027 157.125 103.827 155.025 105.687L129.015 129.177L127.98 126.477H164.205V132.822H121.905ZM166.034 132.867L185.024 108.297L166.439 84.2667H174.359L188.894 103.212L203.294 84.2667H211.214L192.629 108.297L211.664 132.867H203.699L188.894 113.382L173.999 132.867H166.034Z" fill="#394508"/>
<path d="M75.62 189.867V178.347H79.116C79.2387 178.347 79.4467 178.349 79.74 178.355C80.0387 178.36 80.324 178.381 80.596 178.419C81.4707 178.541 82.2013 178.867 82.788 179.395C83.3747 179.923 83.8147 180.595 84.108 181.411C84.4013 182.227 84.548 183.125 84.548 184.107C84.548 185.088 84.4013 185.987 84.108 186.803C83.8147 187.619 83.3747 188.291 82.788 188.819C82.2013 189.347 81.4707 189.672 80.596 189.795C80.3293 189.827 80.044 189.848 79.74 189.859C79.436 189.864 79.228 189.867 79.116 189.867H75.62ZM76.836 188.739H79.116C79.3347 188.739 79.5693 188.733 79.82 188.723C80.076 188.707 80.2947 188.68 80.476 188.643C81.148 188.525 81.6893 188.253 82.1 187.827C82.516 187.4 82.82 186.867 83.012 186.227C83.204 185.581 83.3 184.875 83.3 184.107C83.3 183.333 83.204 182.624 83.012 181.979C82.82 181.333 82.516 180.8 82.1 180.379C81.684 179.957 81.1427 179.688 80.476 179.571C80.2947 179.533 80.0733 179.509 79.812 179.499C79.556 179.483 79.324 179.475 79.116 179.475H76.836V188.739ZM89.978 190.107C89.1193 190.107 88.386 189.912 87.778 189.523C87.17 189.133 86.7033 188.595 86.378 187.907C86.0527 187.219 85.89 186.429 85.89 185.539C85.89 184.632 86.0553 183.837 86.386 183.155C86.7167 182.472 87.186 181.941 87.794 181.563C88.4073 181.179 89.1353 180.987 89.978 180.987C90.842 180.987 91.578 181.181 92.186 181.571C92.7993 181.955 93.266 182.491 93.586 183.179C93.9113 183.861 94.074 184.648 94.074 185.539C94.074 186.445 93.9113 187.243 93.586 187.931C93.2607 188.613 92.7913 189.147 92.178 189.531C91.5647 189.915 90.8313 190.107 89.978 190.107ZM89.978 188.979C90.938 188.979 91.6527 188.661 92.122 188.027C92.5913 187.387 92.826 186.557 92.826 185.539C92.826 184.493 92.5887 183.661 92.114 183.043C91.6447 182.424 90.9327 182.115 89.978 182.115C89.3327 182.115 88.7993 182.261 88.378 182.555C87.962 182.843 87.65 183.245 87.442 183.763C87.2393 184.275 87.138 184.867 87.138 185.539C87.138 186.579 87.378 187.413 87.858 188.043C88.338 188.667 89.0447 188.979 89.978 188.979ZM99.1428 190.083C98.6254 190.083 98.1721 190.003 97.7828 189.843C97.3988 189.683 97.0708 189.467 96.7988 189.195C96.5321 188.923 96.3161 188.613 96.1508 188.267C95.9854 187.915 95.8654 187.544 95.7908 187.155C95.7161 186.76 95.6788 186.368 95.6788 185.979V181.227H96.8628V185.635C96.8628 186.109 96.9081 186.549 96.9988 186.955C97.0894 187.36 97.2334 187.715 97.4308 188.019C97.6334 188.317 97.8921 188.549 98.2068 188.715C98.5268 188.88 98.9134 188.963 99.3668 188.963C99.7828 188.963 100.148 188.891 100.463 188.747C100.783 188.603 101.049 188.397 101.263 188.131C101.481 187.859 101.647 187.531 101.759 187.147C101.871 186.757 101.927 186.32 101.927 185.835L102.759 186.019C102.759 186.904 102.604 187.648 102.295 188.251C101.985 188.853 101.559 189.309 101.015 189.619C100.471 189.928 99.8468 190.083 99.1428 190.083ZM102.047 189.867V187.739H101.927V181.227H103.103V189.867H102.047ZM109.219 190.107C108.424 190.107 107.752 189.907 107.203 189.507C106.653 189.101 106.237 188.555 105.955 187.867C105.672 187.173 105.531 186.397 105.531 185.539C105.531 184.664 105.672 183.885 105.955 183.203C106.243 182.515 106.664 181.973 107.219 181.579C107.773 181.184 108.456 180.987 109.267 180.987C110.056 180.987 110.733 181.187 111.299 181.587C111.864 181.987 112.296 182.531 112.595 183.219C112.899 183.907 113.051 184.68 113.051 185.539C113.051 186.403 112.899 187.179 112.595 187.867C112.291 188.555 111.853 189.101 111.283 189.507C110.712 189.907 110.024 190.107 109.219 190.107ZM105.331 189.867V178.347H106.515V183.363H106.387V189.867H105.331ZM109.099 189.011C109.701 189.011 110.203 188.859 110.603 188.555C111.003 188.251 111.301 187.837 111.499 187.315C111.701 186.787 111.803 186.195 111.803 185.539C111.803 184.888 111.704 184.301 111.507 183.779C111.309 183.256 111.008 182.843 110.603 182.539C110.203 182.235 109.693 182.083 109.075 182.083C108.472 182.083 107.971 182.229 107.571 182.523C107.176 182.816 106.88 183.224 106.683 183.747C106.485 184.264 106.387 184.861 106.387 185.539C106.387 186.205 106.485 186.803 106.683 187.331C106.88 187.853 107.179 188.264 107.579 188.563C107.979 188.861 108.485 189.011 109.099 189.011ZM114.968 189.867V178.107H116.144V189.867H114.968ZM122.198 190.107C121.355 190.107 120.625 189.92 120.006 189.547C119.393 189.173 118.915 188.648 118.574 187.971C118.233 187.293 118.062 186.499 118.062 185.587C118.062 184.643 118.23 183.827 118.566 183.139C118.902 182.451 119.374 181.92 119.982 181.547C120.595 181.173 121.318 180.987 122.15 180.987C123.003 180.987 123.731 181.184 124.334 181.579C124.937 181.968 125.393 182.528 125.702 183.259C126.011 183.989 126.153 184.861 126.126 185.875H124.926V185.459C124.905 184.339 124.662 183.493 124.198 182.923C123.739 182.352 123.067 182.067 122.182 182.067C121.254 182.067 120.542 182.368 120.046 182.971C119.555 183.573 119.31 184.432 119.31 185.547C119.31 186.635 119.555 187.48 120.046 188.083C120.542 188.68 121.243 188.979 122.15 188.979C122.769 188.979 123.307 188.837 123.766 188.555C124.23 188.267 124.595 187.853 124.862 187.315L125.958 187.739C125.617 188.491 125.113 189.075 124.446 189.491C123.785 189.901 123.035 190.107 122.198 190.107ZM118.894 185.875V184.891H125.494V185.875H118.894ZM133.848 189.867V185.043L129.984 178.347H131.344L134.44 183.699L137.52 178.347H138.88L135.032 185.043V189.867H133.848ZM142.322 190.107C141.463 190.107 140.73 189.912 140.122 189.523C139.514 189.133 139.047 188.595 138.722 187.907C138.396 187.219 138.234 186.429 138.234 185.539C138.234 184.632 138.399 183.837 138.73 183.155C139.06 182.472 139.53 181.941 140.138 181.563C140.751 181.179 141.479 180.987 142.322 180.987C143.186 180.987 143.922 181.181 144.53 181.571C145.143 181.955 145.61 182.491 145.93 183.179C146.255 183.861 146.418 184.648 146.418 185.539C146.418 186.445 146.255 187.243 145.93 187.931C145.604 188.613 145.135 189.147 144.522 189.531C143.908 189.915 143.175 190.107 142.322 190.107ZM142.322 188.979C143.282 188.979 143.996 188.661 144.466 188.027C144.935 187.387 145.17 186.557 145.17 185.539C145.17 184.493 144.932 183.661 144.458 183.043C143.988 182.424 143.276 182.115 142.322 182.115C141.676 182.115 141.143 182.261 140.722 182.555C140.306 182.843 139.994 183.245 139.786 183.763C139.583 184.275 139.482 184.867 139.482 185.539C139.482 186.579 139.722 187.413 140.202 188.043C140.682 188.667 141.388 188.979 142.322 188.979ZM151.487 190.083C150.969 190.083 150.516 190.003 150.127 189.843C149.743 189.683 149.415 189.467 149.143 189.195C148.876 188.923 148.66 188.613 148.495 188.267C148.329 187.915 148.209 187.544 148.135 187.155C148.06 186.76 148.023 186.368 148.023 185.979V181.227H149.207V185.635C149.207 186.109 149.252 186.549 149.343 186.955C149.433 187.36 149.577 187.715 149.775 188.019C149.977 188.317 150.236 188.549 150.551 188.715C150.871 188.88 151.257 188.963 151.711 188.963C152.127 188.963 152.492 188.891 152.807 188.747C153.127 188.603 153.393 188.397 153.607 188.131C153.825 187.859 153.991 187.531 154.103 187.147C154.215 186.757 154.271 186.32 154.271 185.835L155.102 186.019C155.102 186.904 154.948 187.648 154.639 188.251C154.329 188.853 153.903 189.309 153.359 189.619C152.815 189.928 152.191 190.083 151.487 190.083ZM154.391 189.867V187.739H154.271V181.227H155.447V189.867H154.391ZM157.683 189.867V181.227H158.739V183.307L158.531 183.035C158.627 182.779 158.752 182.544 158.907 182.331C159.061 182.112 159.229 181.933 159.411 181.795C159.635 181.597 159.896 181.448 160.195 181.347C160.493 181.24 160.795 181.179 161.099 181.163C161.403 181.141 161.68 181.163 161.931 181.227V182.331C161.616 182.251 161.272 182.232 160.899 182.275C160.525 182.317 160.181 182.467 159.867 182.723C159.579 182.947 159.363 183.216 159.219 183.531C159.075 183.84 158.979 184.171 158.931 184.523C158.883 184.869 158.859 185.213 158.859 185.555V189.867H157.683ZM166.651 189.867V178.347H171.099C171.211 178.347 171.337 178.352 171.475 178.363C171.619 178.368 171.763 178.384 171.907 178.411C172.51 178.501 173.019 178.712 173.435 179.043C173.857 179.368 174.174 179.779 174.387 180.275C174.606 180.771 174.715 181.32 174.715 181.923C174.715 182.52 174.606 183.067 174.387 183.563C174.169 184.059 173.849 184.472 173.427 184.803C173.011 185.128 172.505 185.336 171.907 185.427C171.763 185.448 171.619 185.464 171.475 185.475C171.337 185.485 171.211 185.491 171.099 185.491H167.827V189.867H166.651ZM167.827 184.371H171.067C171.163 184.371 171.275 184.365 171.403 184.355C171.531 184.344 171.657 184.325 171.779 184.299C172.174 184.213 172.497 184.051 172.747 183.811C173.003 183.571 173.193 183.285 173.315 182.955C173.443 182.624 173.507 182.28 173.507 181.923C173.507 181.565 173.443 181.221 173.315 180.891C173.193 180.555 173.003 180.267 172.747 180.027C172.497 179.787 172.174 179.624 171.779 179.539C171.657 179.512 171.531 179.496 171.403 179.491C171.275 179.48 171.163 179.475 171.067 179.475H167.827V184.371ZM176.308 189.867V181.227H177.364V183.307L177.156 183.035C177.252 182.779 177.377 182.544 177.532 182.331C177.686 182.112 177.854 181.933 178.036 181.795C178.26 181.597 178.521 181.448 178.82 181.347C179.118 181.24 179.42 181.179 179.724 181.163C180.028 181.141 180.305 181.163 180.556 181.227V182.331C180.241 182.251 179.897 182.232 179.524 182.275C179.15 182.317 178.806 182.467 178.492 182.723C178.204 182.947 177.988 183.216 177.844 183.531C177.7 183.84 177.604 184.171 177.556 184.523C177.508 184.869 177.484 185.213 177.484 185.555V189.867H176.308ZM185.525 190.107C184.666 190.107 183.933 189.912 183.325 189.523C182.717 189.133 182.25 188.595 181.925 187.907C181.6 187.219 181.437 186.429 181.437 185.539C181.437 184.632 181.602 183.837 181.933 183.155C182.264 182.472 182.733 181.941 183.341 181.563C183.954 181.179 184.682 180.987 185.525 180.987C186.389 180.987 187.125 181.181 187.733 181.571C188.346 181.955 188.813 182.491 189.133 183.179C189.458 183.861 189.621 184.648 189.621 185.539C189.621 186.445 189.458 187.243 189.133 187.931C188.808 188.613 188.338 189.147 187.725 189.531C187.112 189.915 186.378 190.107 185.525 190.107ZM185.525 188.979C186.485 188.979 187.2 188.661 187.669 188.027C188.138 187.387 188.373 186.557 188.373 185.539C188.373 184.493 188.136 183.661 187.661 183.043C187.192 182.424 186.48 182.115 185.525 182.115C184.88 182.115 184.346 182.261 183.925 182.555C183.509 182.843 183.197 183.245 182.989 183.763C182.786 184.275 182.685 184.867 182.685 185.539C182.685 186.579 182.925 187.413 183.405 188.043C183.885 188.667 184.592 188.979 185.525 188.979ZM194.738 190.107C193.932 190.107 193.244 189.907 192.674 189.507C192.103 189.101 191.666 188.555 191.362 187.867C191.058 187.179 190.906 186.403 190.906 185.539C190.906 184.68 191.055 183.907 191.354 183.219C191.658 182.531 192.092 181.987 192.658 181.587C193.223 181.187 193.9 180.987 194.69 180.987C195.5 180.987 196.183 181.184 196.738 181.579C197.292 181.973 197.711 182.515 197.994 183.203C198.282 183.885 198.426 184.664 198.426 185.539C198.426 186.397 198.284 187.173 198.002 187.867C197.719 188.555 197.303 189.101 196.754 189.507C196.204 189.907 195.532 190.107 194.738 190.107ZM194.858 189.011C195.471 189.011 195.978 188.861 196.378 188.563C196.778 188.264 197.076 187.853 197.274 187.331C197.471 186.803 197.57 186.205 197.57 185.539C197.57 184.861 197.471 184.264 197.274 183.747C197.076 183.224 196.778 182.816 196.378 182.523C195.983 182.229 195.484 182.083 194.882 182.083C194.263 182.083 193.751 182.235 193.346 182.539C192.94 182.843 192.639 183.256 192.442 183.779C192.25 184.301 192.154 184.888 192.154 185.539C192.154 186.195 192.252 186.787 192.45 187.315C192.652 187.837 192.954 188.251 193.354 188.555C193.754 188.859 194.255 189.011 194.858 189.011ZM197.57 189.867V183.363H197.442V178.347H198.626V189.867H197.57ZM204.174 190.083C203.657 190.083 203.203 190.003 202.814 189.843C202.43 189.683 202.102 189.467 201.83 189.195C201.563 188.923 201.347 188.613 201.182 188.267C201.017 187.915 200.897 187.544 200.822 187.155C200.747 186.76 200.71 186.368 200.71 185.979V181.227H201.894V185.635C201.894 186.109 201.939 186.549 202.03 186.955C202.121 187.36 202.265 187.715 202.462 188.019C202.665 188.317 202.923 188.549 203.238 188.715C203.558 188.88 203.945 188.963 204.398 188.963C204.814 188.963 205.179 188.891 205.494 188.747C205.814 188.603 206.081 188.397 206.294 188.131C206.513 187.859 206.678 187.531 206.79 187.147C206.902 186.757 206.958 186.32 206.958 185.835L207.79 186.019C207.79 186.904 207.635 187.648 207.326 188.251C207.017 188.853 206.59 189.309 206.046 189.619C205.502 189.928 204.878 190.083 204.174 190.083ZM207.078 189.867V187.739H206.958V181.227H208.134V189.867H207.078ZM213.954 190.107C213.085 190.107 212.349 189.912 211.746 189.523C211.143 189.133 210.685 188.597 210.37 187.915C210.061 187.227 209.901 186.437 209.89 185.547C209.901 184.64 210.066 183.845 210.386 183.163C210.706 182.475 211.167 181.941 211.77 181.563C212.373 181.179 213.103 180.987 213.962 180.987C214.837 180.987 215.597 181.2 216.242 181.627C216.893 182.053 217.338 182.637 217.578 183.379L216.426 183.747C216.223 183.229 215.901 182.829 215.458 182.547C215.021 182.259 214.519 182.115 213.954 182.115C213.319 182.115 212.794 182.261 212.378 182.555C211.962 182.843 211.653 183.245 211.45 183.763C211.247 184.28 211.143 184.875 211.138 185.547C211.149 186.581 211.389 187.413 211.858 188.043C212.327 188.667 213.026 188.979 213.954 188.979C214.541 188.979 215.039 188.845 215.45 188.579C215.866 188.307 216.181 187.912 216.394 187.395L217.578 187.747C217.258 188.515 216.789 189.101 216.17 189.507C215.551 189.907 214.813 190.107 213.954 190.107ZM223.933 189.867C223.448 189.968 222.968 190.008 222.493 189.987C222.024 189.965 221.603 189.864 221.229 189.683C220.861 189.501 220.581 189.219 220.389 188.835C220.235 188.515 220.149 188.192 220.133 187.867C220.123 187.536 220.117 187.16 220.117 186.739V178.827H221.285V186.691C221.285 187.053 221.288 187.357 221.293 187.603C221.304 187.843 221.36 188.056 221.461 188.243C221.653 188.6 221.957 188.813 222.373 188.883C222.795 188.952 223.315 188.936 223.933 188.835V189.867ZM218.269 182.235V181.227H223.933V182.235H218.269ZM225.796 179.587V178.267H226.972V179.587H225.796ZM225.796 189.867V181.227H226.972V189.867H225.796ZM231.706 189.867L228.57 181.227H229.762L232.314 188.331L234.85 181.227H236.058L232.922 189.867H231.706ZM237.655 179.587V178.267H238.831V179.587H237.655ZM237.655 189.867V181.227H238.831V189.867H237.655ZM245.933 189.867C245.448 189.968 244.968 190.008 244.493 189.987C244.024 189.965 243.603 189.864 243.229 189.683C242.861 189.501 242.581 189.219 242.389 188.835C242.235 188.515 242.149 188.192 242.133 187.867C242.123 187.536 242.117 187.16 242.117 186.739V178.827H243.285V186.691C243.285 187.053 243.288 187.357 243.293 187.603C243.304 187.843 243.36 188.056 243.461 188.243C243.653 188.6 243.957 188.813 244.373 188.883C244.795 188.952 245.315 188.936 245.933 188.835V189.867ZM240.269 182.235V181.227H245.933V182.235H240.269ZM248.633 193.707L250.305 189.171L250.329 190.515L246.545 181.227H247.793L250.897 188.995H250.385L253.249 181.227H254.449L249.809 193.707H248.633Z" fill="#394508"/>
</svg>
