<svg width="330" height="222" viewBox="0 0 330 222" fill="none" xmlns="http://www.w3.org/2000/svg">
<rect width="330" height="221.867" rx="10.6667" fill="#D2FD9C"/>
<path d="M77.5544 143.517V86.0967L65.3594 93.4317V86.0067L77.5544 78.7167H84.2594V143.517H77.5544Z" fill="#394508"/>
<path d="M115.143 144.822C111.933 144.822 108.978 144.252 106.278 143.112C103.578 141.972 101.253 140.352 99.3027 138.252C97.3527 136.122 95.9277 133.587 95.0277 130.647L101.328 128.757C102.408 131.967 104.178 134.397 106.638 136.047C109.128 137.697 111.933 138.492 115.053 138.432C117.933 138.372 120.408 137.727 122.478 136.497C124.578 135.267 126.183 133.557 127.293 131.367C128.403 129.177 128.958 126.642 128.958 123.762C128.958 119.352 127.668 115.812 125.088 113.142C122.538 110.442 119.163 109.092 114.963 109.092C113.793 109.092 112.563 109.257 111.273 109.587C109.983 109.887 108.783 110.322 107.673 110.892L104.343 105.627L129.543 82.3617L130.623 85.0617H97.5927V78.7167H135.033V85.1517L113.073 106.122L112.983 103.512C117.483 102.942 121.443 103.452 124.863 105.042C128.283 106.632 130.953 109.062 132.873 112.332C134.823 115.572 135.798 119.382 135.798 123.762C135.798 127.902 134.898 131.562 133.098 134.742C131.328 137.892 128.883 140.367 125.763 142.167C122.643 143.937 119.103 144.822 115.143 144.822Z" fill="#394508"/>
<path d="M165.024 144.867C161.034 144.867 157.434 143.937 154.224 142.077C151.044 140.217 148.524 137.697 146.664 134.517C144.804 131.307 143.874 127.707 143.874 123.717V98.5167C143.874 94.5267 144.804 90.9417 146.664 87.7617C148.524 84.5517 151.044 82.0167 154.224 80.1567C157.434 78.2967 161.034 77.3667 165.024 77.3667C169.014 77.3667 172.599 78.2967 175.779 80.1567C178.989 82.0167 181.524 84.5517 183.384 87.7617C185.244 90.9417 186.174 94.5267 186.174 98.5167V123.717C186.174 127.707 185.244 131.307 183.384 134.517C181.524 137.697 178.989 140.217 175.779 142.077C172.599 143.937 169.014 144.867 165.024 144.867ZM165.024 138.477C167.694 138.477 170.124 137.832 172.314 136.542C174.504 135.222 176.244 133.467 177.534 131.277C178.824 129.087 179.469 126.672 179.469 124.032V98.2017C179.469 95.5317 178.824 93.1017 177.534 90.9117C176.244 88.7217 174.504 86.9817 172.314 85.6917C170.124 84.3717 167.694 83.7117 165.024 83.7117C162.354 83.7117 159.924 84.3717 157.734 85.6917C155.544 86.9817 153.804 88.7217 152.514 90.9117C151.224 93.1017 150.579 95.5317 150.579 98.2017V124.032C150.579 126.672 151.224 129.087 152.514 131.277C153.804 133.467 155.544 135.222 157.734 136.542C159.924 137.832 162.354 138.477 165.024 138.477Z" fill="#394508"/>
<path d="M201.505 143.517L197.005 139.017L257.44 78.7167L261.94 83.1717L201.505 143.517ZM248.44 144.867C245.47 144.867 242.755 144.147 240.295 142.707C237.865 141.237 235.915 139.287 234.445 136.857C232.975 134.397 232.24 131.667 232.24 128.667C232.24 125.727 232.99 123.027 234.49 120.567C235.99 118.107 237.97 116.142 240.43 114.672C242.89 113.202 245.56 112.467 248.44 112.467C251.41 112.467 254.125 113.202 256.585 114.672C259.045 116.112 260.995 118.062 262.435 120.522C263.905 122.952 264.64 125.667 264.64 128.667C264.64 131.667 263.905 134.397 262.435 136.857C260.995 139.287 259.045 141.237 256.585 142.707C254.125 144.147 251.41 144.867 248.44 144.867ZM248.44 138.882C250.27 138.882 251.965 138.417 253.525 137.487C255.085 136.557 256.33 135.327 257.26 133.797C258.19 132.237 258.655 130.527 258.655 128.667C258.655 126.807 258.19 125.112 257.26 123.582C256.33 122.022 255.085 120.777 253.525 119.847C251.965 118.917 250.27 118.452 248.44 118.452C246.58 118.452 244.87 118.917 243.31 119.847C241.78 120.777 240.535 122.022 239.575 123.582C238.645 125.112 238.18 126.807 238.18 128.667C238.18 130.527 238.645 132.237 239.575 133.797C240.535 135.327 241.78 136.557 243.31 137.487C244.87 138.417 246.58 138.882 248.44 138.882ZM210.505 109.767C207.535 109.767 204.82 109.047 202.36 107.607C199.9 106.137 197.935 104.187 196.465 101.757C195.025 99.2967 194.305 96.5667 194.305 93.5667C194.305 90.6267 195.055 87.9267 196.555 85.4667C198.055 83.0067 200.035 81.0417 202.495 79.5717C204.955 78.1017 207.625 77.3667 210.505 77.3667C213.475 77.3667 216.175 78.1017 218.605 79.5717C221.065 81.0117 223.03 82.9617 224.5 85.4217C225.97 87.8517 226.705 90.5667 226.705 93.5667C226.705 96.5667 225.97 99.2967 224.5 101.757C223.03 104.187 221.065 106.137 218.605 107.607C216.175 109.047 213.475 109.767 210.505 109.767ZM210.505 103.782C212.365 103.782 214.06 103.317 215.59 102.387C217.15 101.457 218.395 100.227 219.325 98.6967C220.255 97.1367 220.72 95.4267 220.72 93.5667C220.72 91.7067 220.255 90.0117 219.325 88.4817C218.395 86.9217 217.15 85.6767 215.59 84.7467C214.06 83.8167 212.365 83.3517 210.505 83.3517C208.645 83.3517 206.935 83.8167 205.375 84.7467C203.845 85.6767 202.615 86.9217 201.685 88.4817C200.755 90.0117 200.29 91.7067 200.29 93.5667C200.29 95.4267 200.755 97.1367 201.685 98.6967C202.615 100.227 203.845 101.457 205.375 102.387C206.935 103.317 208.645 103.782 210.505 103.782Z" fill="#394508"/>
<path d="M117.62 189.867V178.347H118.7L123.228 188.035L127.732 178.347H128.828V189.859H127.708V180.971L123.604 189.867H122.844L118.748 180.971V189.867H117.62ZM134.681 190.107C133.822 190.107 133.089 189.912 132.481 189.523C131.873 189.133 131.406 188.595 131.081 187.907C130.756 187.219 130.593 186.429 130.593 185.539C130.593 184.632 130.758 183.837 131.089 183.155C131.42 182.472 131.889 181.941 132.497 181.563C133.11 181.179 133.838 180.987 134.681 180.987C135.545 180.987 136.281 181.181 136.889 181.571C137.502 181.955 137.969 182.491 138.289 183.179C138.614 183.861 138.777 184.648 138.777 185.539C138.777 186.445 138.614 187.243 138.289 187.931C137.964 188.613 137.494 189.147 136.881 189.531C136.268 189.915 135.534 190.107 134.681 190.107ZM134.681 188.979C135.641 188.979 136.356 188.661 136.825 188.027C137.294 187.387 137.529 186.557 137.529 185.539C137.529 184.493 137.292 183.661 136.817 183.043C136.348 182.424 135.636 182.115 134.681 182.115C134.036 182.115 133.502 182.261 133.081 182.555C132.665 182.843 132.353 183.245 132.145 183.763C131.942 184.275 131.841 184.867 131.841 185.539C131.841 186.579 132.081 187.413 132.561 188.043C133.041 188.667 133.748 188.979 134.681 188.979ZM140.542 189.867V181.227H141.598V183.307L141.39 183.035C141.486 182.779 141.611 182.544 141.766 182.331C141.921 182.112 142.089 181.933 142.27 181.795C142.494 181.597 142.755 181.448 143.054 181.347C143.353 181.24 143.654 181.179 143.958 181.163C144.262 181.141 144.539 181.163 144.79 181.227V182.331C144.475 182.251 144.131 182.232 143.758 182.275C143.385 182.317 143.041 182.467 142.726 182.723C142.438 182.947 142.222 183.216 142.078 183.531C141.934 183.84 141.838 184.171 141.79 184.523C141.742 184.869 141.718 185.213 141.718 185.555V189.867H140.542ZM149.807 190.107C148.965 190.107 148.234 189.92 147.615 189.547C147.002 189.173 146.525 188.648 146.183 187.971C145.842 187.293 145.671 186.499 145.671 185.587C145.671 184.643 145.839 183.827 146.175 183.139C146.511 182.451 146.983 181.92 147.591 181.547C148.205 181.173 148.927 180.987 149.759 180.987C150.613 180.987 151.341 181.184 151.943 181.579C152.546 181.968 153.002 182.528 153.311 183.259C153.621 183.989 153.762 184.861 153.735 185.875H152.535V185.459C152.514 184.339 152.271 183.493 151.807 182.923C151.349 182.352 150.677 182.067 149.791 182.067C148.863 182.067 148.151 182.368 147.655 182.971C147.165 183.573 146.919 184.432 146.919 185.547C146.919 186.635 147.165 187.48 147.655 188.083C148.151 188.68 148.853 188.979 149.759 188.979C150.378 188.979 150.917 188.837 151.375 188.555C151.839 188.267 152.205 187.853 152.471 187.315L153.567 187.739C153.226 188.491 152.722 189.075 152.055 189.491C151.394 189.901 150.645 190.107 149.807 190.107ZM146.503 185.875V184.891H153.103V185.875H146.503ZM157.914 189.867L161.882 178.347H163.442L167.41 189.867H166.186L162.418 179.003H162.882L159.138 189.867H157.914ZM159.682 187.075V185.971H165.634V187.075H159.682ZM172.438 190.107C171.569 190.107 170.833 189.912 170.23 189.523C169.628 189.133 169.169 188.597 168.854 187.915C168.545 187.227 168.385 186.437 168.374 185.547C168.385 184.64 168.55 183.845 168.87 183.163C169.19 182.475 169.652 181.941 170.254 181.563C170.857 181.179 171.588 180.987 172.446 180.987C173.321 180.987 174.081 181.2 174.726 181.627C175.377 182.053 175.822 182.637 176.062 183.379L174.91 183.747C174.708 183.229 174.385 182.829 173.942 182.547C173.505 182.259 173.004 182.115 172.438 182.115C171.804 182.115 171.278 182.261 170.862 182.555C170.446 182.843 170.137 183.245 169.934 183.763C169.732 184.28 169.628 184.875 169.622 185.547C169.633 186.581 169.873 187.413 170.342 188.043C170.812 188.667 171.51 188.979 172.438 188.979C173.025 188.979 173.524 188.845 173.934 188.579C174.35 188.307 174.665 187.912 174.878 187.395L176.062 187.747C175.742 188.515 175.273 189.101 174.654 189.507C174.036 189.907 173.297 190.107 172.438 190.107ZM182.418 189.867C181.932 189.968 181.452 190.008 180.978 189.987C180.508 189.965 180.087 189.864 179.714 189.683C179.346 189.501 179.066 189.219 178.874 188.835C178.719 188.515 178.634 188.192 178.618 187.867C178.607 187.536 178.602 187.16 178.602 186.739V178.827H179.77V186.691C179.77 187.053 179.772 187.357 179.778 187.603C179.788 187.843 179.844 188.056 179.946 188.243C180.138 188.6 180.442 188.813 180.858 188.883C181.279 188.952 181.799 188.936 182.418 188.835V189.867ZM176.754 182.235V181.227H182.418V182.235H176.754ZM184.28 179.587V178.267H185.456V179.587H184.28ZM184.28 189.867V181.227H185.456V189.867H184.28ZM190.19 189.867L187.054 181.227H188.246L190.798 188.331L193.334 181.227H194.542L191.406 189.867H190.19ZM196.139 179.587V178.267H197.315V179.587H196.139ZM196.139 189.867V181.227H197.315V189.867H196.139ZM204.418 189.867C203.932 189.968 203.452 190.008 202.978 189.987C202.508 189.965 202.087 189.864 201.714 189.683C201.346 189.501 201.066 189.219 200.874 188.835C200.719 188.515 200.634 188.192 200.618 187.867C200.607 187.536 200.602 187.16 200.602 186.739V178.827H201.77V186.691C201.77 187.053 201.772 187.357 201.778 187.603C201.788 187.843 201.844 188.056 201.946 188.243C202.138 188.6 202.442 188.813 202.858 188.883C203.279 188.952 203.799 188.936 204.418 188.835V189.867ZM198.754 182.235V181.227H204.418V182.235H198.754ZM207.118 193.707L208.79 189.171L208.814 190.515L205.03 181.227H206.278L209.382 188.995H208.87L211.734 181.227H212.934L208.294 193.707H207.118Z" fill="#394508"/>
</svg>
