<svg width="330" height="222" viewBox="0 0 330 222" fill="none" xmlns="http://www.w3.org/2000/svg">
<rect width="330" height="221.867" rx="10.6667" fill="#D2FD9C"/>
<path d="M93.8677 132.666H103.687V144.867H93.8677V132.666Z" fill="#394508" fill-opacity="0.5"/>
<path d="M106.016 114.589H115.835V144.867H106.016V114.589Z" fill="#394508" fill-opacity="0.5"/>
<path d="M118.164 118.867H127.865V144.867H118.164V118.867Z" fill="#394508" fill-opacity="0.5"/>
<path d="M130.193 110.718H139.895V144.867H130.193V110.718Z" fill="#394508" fill-opacity="0.5"/>
<path d="M142.223 107.613H151.924V144.867H142.223V107.613Z" fill="#394508" fill-opacity="0.5"/>
<path d="M154.253 95.1958H163.954V144.867H154.253V95.1958Z" fill="#394508" fill-opacity="0.5"/>
<path d="M166.282 102.181H175.984V144.867H166.282V102.181Z" fill="#394508" fill-opacity="0.5"/>
<path d="M178.312 107.207H188.013V144.867H178.312V107.207Z" fill="#394508" fill-opacity="0.5"/>
<path d="M190.342 82.002H200.043V144.867H190.342V82.002Z" fill="#394508" fill-opacity="0.5"/>
<path d="M202.371 71.1365H212.073V144.867H202.371V71.1365Z" fill="#394508" fill-opacity="0.5"/>
<path d="M214.401 61.8232H224.102V144.867H214.401V61.8232Z" fill="#394508" fill-opacity="0.5"/>
<path d="M226.431 48.2414H236.132V144.867H226.431V48.2414Z" fill="#394508" fill-opacity="0.5"/>
<path d="M100.339 132.422C100.339 133.389 99.5551 134.172 98.5886 134.172C97.6221 134.172 96.8386 133.389 96.8386 132.422C96.8386 131.456 97.6221 130.672 98.5886 130.672C99.5551 130.672 100.339 131.456 100.339 132.422Z" fill="#394508"/>
<path d="M184.868 107.198C184.868 108.165 184.084 108.948 183.118 108.948C182.151 108.948 181.368 108.165 181.368 107.198C181.368 106.232 182.151 105.448 183.118 105.448C184.084 105.448 184.868 106.232 184.868 107.198Z" fill="#394508"/>
<path d="M233.016 48.158C233.016 49.1245 232.232 49.908 231.266 49.908C230.299 49.908 229.516 49.1245 229.516 48.158C229.516 47.1915 230.299 46.408 231.266 46.408C232.232 46.408 233.016 47.1915 233.016 48.158Z" fill="#394508"/>
<path fill-rule="evenodd" clip-rule="evenodd" d="M231.483 48.3541L230.815 49.1748L230.484 48.9052L231.153 48.0845L231.483 48.3541ZM229.477 50.8161L228.139 52.4574L227.809 52.1878L229.146 50.5465L229.477 50.8161ZM226.802 54.0987L225.464 55.7401L225.134 55.4705L226.471 53.8292L226.802 54.0987ZM224.127 57.3814L222.789 59.0227L222.458 58.7532L223.796 57.1118L224.127 57.3814ZM221.452 60.6641L220.114 62.3054L219.783 62.0358L221.121 60.3945L221.452 60.6641ZM218.777 63.9467L217.439 65.588L217.108 65.3185L218.446 63.6772L218.777 63.9467ZM216.101 67.2294L214.764 68.8707L214.433 68.6012L215.771 66.9598L216.101 67.2294ZM213.426 70.512L212.089 72.1534L211.758 71.8838L213.095 70.2425L213.426 70.512ZM210.751 73.7947L209.414 75.436L209.083 75.1665L210.42 73.5251L210.751 73.7947ZM208.076 77.0774L206.738 78.7187L206.408 78.4491L207.745 76.8078L208.076 77.0774ZM205.401 80.36L204.063 82.0014L203.733 81.7318L205.07 80.0905L205.401 80.36ZM202.726 83.6427L201.388 85.284L201.057 85.0145L202.395 83.3731L202.726 83.6427ZM200.051 86.9254L198.713 88.5667L198.382 88.2971L199.72 86.6558L200.051 86.9254ZM197.375 90.208L196.038 91.8493L195.707 91.5798L197.045 89.9384L197.375 90.208ZM194.7 93.4907L193.363 95.132L193.032 94.8624L194.37 93.2211L194.7 93.4907ZM192.025 96.7733L190.688 98.4147L190.357 98.1451L191.694 96.5038L192.025 96.7733ZM189.35 100.056L188.013 101.697L187.682 101.428L189.019 99.7864L189.35 100.056ZM186.675 103.339L185.337 104.98L185.007 104.71L186.344 103.069L186.675 103.339ZM184 106.621L183.289 107.493L182.218 107.811L182.097 107.402L183.042 107.121L183.669 106.352L184 106.621ZM180.202 108.41L178.186 109.008L178.064 108.599L180.081 108.001L180.202 108.41ZM176.169 109.607L174.153 110.206L174.032 109.797L176.048 109.198L176.169 109.607ZM172.137 110.805L170.121 111.403L169.999 110.994L172.015 110.396L172.137 110.805ZM168.104 112.002L166.088 112.601L165.967 112.192L167.983 111.593L168.104 112.002ZM164.072 113.199L162.056 113.798L161.934 113.389L163.95 112.79L164.072 113.199ZM160.039 114.397L158.023 114.996L157.902 114.587L159.918 113.988L160.039 114.397ZM156.007 115.594L153.991 116.193L153.869 115.784L155.885 115.185L156.007 115.594ZM151.974 116.792L149.958 117.39L149.837 116.981L151.853 116.383L151.974 116.792ZM147.942 117.989L145.925 118.588L145.804 118.179L147.82 117.58L147.942 117.989ZM143.909 119.187L141.893 119.785L141.771 119.376L143.788 118.777L143.909 119.187ZM139.877 120.384L137.86 120.983L137.739 120.574L139.755 119.975L139.877 120.384ZM135.844 121.581L133.828 122.18L133.706 121.771L135.723 121.172L135.844 121.581ZM131.812 122.779L129.795 123.378L129.674 122.968L131.69 122.37L131.812 122.779ZM127.779 123.976L125.763 124.575L125.641 124.166L127.658 123.567L127.779 123.976ZM123.747 125.174L121.73 125.772L121.609 125.363L123.625 124.765L123.747 125.174ZM119.714 126.371L117.698 126.97L117.576 126.561L119.593 125.962L119.714 126.371ZM115.682 127.568L113.665 128.167L113.544 127.758L115.56 127.159L115.682 127.568ZM111.649 128.766L109.633 129.365L109.511 128.956L111.528 128.357L111.649 128.766ZM107.616 129.963L105.6 130.562L105.479 130.153L107.495 129.554L107.616 129.963ZM103.584 131.161L101.568 131.759L101.446 131.35L103.462 130.752L103.584 131.161ZM99.5514 132.358L98.5432 132.658L98.4218 132.248L99.4299 131.949L99.5514 132.358Z" fill="#394508"/>
<path d="M50.62 189.867V178.347H57.82V179.475H51.796V183.459H56.86V184.587H51.796V188.739H57.82V189.867H50.62ZM60.601 189.867V180.587C60.601 180.363 60.6117 180.141 60.633 179.923C60.6597 179.704 60.7103 179.496 60.785 179.299C60.8597 179.096 60.977 178.909 61.137 178.739C61.313 178.547 61.505 178.408 61.713 178.323C61.921 178.232 62.137 178.173 62.361 178.147C62.5903 178.12 62.8143 178.107 63.033 178.107H64.137V179.099H63.113C62.665 179.099 62.329 179.208 62.105 179.427C61.8863 179.645 61.777 179.989 61.777 180.459V189.867H60.601ZM59.105 182.235V181.227H64.137V182.235H59.105ZM65.529 189.867V180.587C65.529 180.363 65.5397 180.141 65.561 179.923C65.5877 179.704 65.6383 179.496 65.713 179.299C65.7877 179.096 65.905 178.909 66.065 178.739C66.241 178.547 66.433 178.408 66.641 178.323C66.849 178.232 67.065 178.173 67.289 178.147C67.5183 178.12 67.7423 178.107 67.961 178.107H69.065V179.099H68.041C67.593 179.099 67.257 179.208 67.033 179.427C66.8143 179.645 66.705 179.989 66.705 180.459V189.867H65.529ZM64.033 182.235V181.227H69.065V182.235H64.033ZM70.7331 179.587V178.267H71.9091V179.587H70.7331ZM70.7331 189.867V181.227H71.9091V189.867H70.7331ZM77.8915 190.107C77.0222 190.107 76.2862 189.912 75.6835 189.523C75.0808 189.133 74.6222 188.597 74.3075 187.915C73.9982 187.227 73.8382 186.437 73.8275 185.547C73.8382 184.64 74.0035 183.845 74.3235 183.163C74.6435 182.475 75.1048 181.941 75.7075 181.563C76.3102 181.179 77.0408 180.987 77.8995 180.987C78.7742 180.987 79.5342 181.2 80.1795 181.627C80.8302 182.053 81.2755 182.637 81.5155 183.379L80.3635 183.747C80.1608 183.229 79.8382 182.829 79.3955 182.547C78.9582 182.259 78.4568 182.115 77.8915 182.115C77.2568 182.115 76.7315 182.261 76.3155 182.555C75.8995 182.843 75.5902 183.245 75.3875 183.763C75.1848 184.28 75.0808 184.875 75.0755 185.547C75.0862 186.581 75.3262 187.413 75.7955 188.043C76.2648 188.667 76.9635 188.979 77.8915 188.979C78.4782 188.979 78.9768 188.845 79.3875 188.579C79.8035 188.307 80.1182 187.912 80.3315 187.395L81.5155 187.747C81.1955 188.515 80.7262 189.101 80.1075 189.507C79.4888 189.907 78.7502 190.107 77.8915 190.107ZM83.0925 179.587V178.267H84.2685V179.587H83.0925ZM83.0925 189.867V181.227H84.2685V189.867H83.0925ZM90.3229 190.107C89.4802 190.107 88.7495 189.92 88.1309 189.547C87.5175 189.173 87.0402 188.648 86.6989 187.971C86.3575 187.293 86.1869 186.499 86.1869 185.587C86.1869 184.643 86.3549 183.827 86.6909 183.139C87.0269 182.451 87.4989 181.92 88.1069 181.547C88.7202 181.173 89.4429 180.987 90.2749 180.987C91.1282 180.987 91.8562 181.184 92.4589 181.579C93.0615 181.968 93.5175 182.528 93.8269 183.259C94.1362 183.989 94.2775 184.861 94.2509 185.875H93.0509V185.459C93.0295 184.339 92.7869 183.493 92.3229 182.923C91.8642 182.352 91.1922 182.067 90.3069 182.067C89.3789 182.067 88.6669 182.368 88.1709 182.971C87.6802 183.573 87.4349 184.432 87.4349 185.547C87.4349 186.635 87.6802 187.48 88.1709 188.083C88.6669 188.68 89.3682 188.979 90.2749 188.979C90.8935 188.979 91.4322 188.837 91.8909 188.555C92.3549 188.267 92.7202 187.853 92.9869 187.315L94.0829 187.739C93.7415 188.491 93.2375 189.075 92.5709 189.491C91.9095 189.901 91.1602 190.107 90.3229 190.107ZM87.0189 185.875V184.891H93.6189V185.875H87.0189ZM102.032 189.867V185.459C102.032 184.979 101.987 184.539 101.896 184.139C101.805 183.733 101.659 183.381 101.456 183.083C101.259 182.779 101 182.544 100.68 182.379C100.365 182.213 99.9812 182.131 99.5279 182.131C99.1119 182.131 98.7439 182.203 98.4239 182.347C98.1092 182.491 97.8425 182.699 97.6239 182.971C97.4105 183.237 97.2479 183.563 97.1359 183.947C97.0239 184.331 96.9679 184.768 96.9679 185.259L96.1359 185.075C96.1359 184.189 96.2905 183.445 96.5999 182.843C96.9092 182.24 97.3359 181.784 97.8799 181.475C98.4239 181.165 99.0479 181.011 99.7519 181.011C100.269 181.011 100.72 181.091 101.104 181.251C101.493 181.411 101.821 181.627 102.088 181.899C102.36 182.171 102.579 182.483 102.744 182.835C102.909 183.181 103.029 183.552 103.104 183.947C103.179 184.336 103.216 184.725 103.216 185.115V189.867H102.032ZM95.7839 189.867V181.227H96.8479V183.355H96.9679V189.867H95.7839ZM108.829 190.107C107.96 190.107 107.224 189.912 106.621 189.523C106.018 189.133 105.56 188.597 105.245 187.915C104.936 187.227 104.776 186.437 104.765 185.547C104.776 184.64 104.941 183.845 105.261 183.163C105.581 182.475 106.042 181.941 106.645 181.563C107.248 181.179 107.978 180.987 108.837 180.987C109.712 180.987 110.472 181.2 111.117 181.627C111.768 182.053 112.213 182.637 112.453 183.379L111.301 183.747C111.098 183.229 110.776 182.829 110.333 182.547C109.896 182.259 109.394 182.115 108.829 182.115C108.194 182.115 107.669 182.261 107.253 182.555C106.837 182.843 106.528 183.245 106.325 183.763C106.122 184.28 106.018 184.875 106.013 185.547C106.024 186.581 106.264 187.413 106.733 188.043C107.202 188.667 107.901 188.979 108.829 188.979C109.416 188.979 109.914 188.845 110.325 188.579C110.741 188.307 111.056 187.912 111.269 187.395L112.453 187.747C112.133 188.515 111.664 189.101 111.045 189.507C110.426 189.907 109.688 190.107 108.829 190.107ZM115.024 193.707L116.696 189.171L116.72 190.515L112.936 181.227H114.184L117.288 188.995H116.776L119.64 181.227H120.84L116.2 193.707H115.024ZM125.593 189.867V178.347H126.769V189.867H125.593ZM135.407 189.867V185.459C135.407 184.979 135.362 184.539 135.271 184.139C135.18 183.733 135.034 183.381 134.831 183.083C134.634 182.779 134.375 182.544 134.055 182.379C133.74 182.213 133.356 182.131 132.903 182.131C132.487 182.131 132.119 182.203 131.799 182.347C131.484 182.491 131.218 182.699 130.999 182.971C130.786 183.237 130.623 183.563 130.511 183.947C130.399 184.331 130.343 184.768 130.343 185.259L129.511 185.075C129.511 184.189 129.666 183.445 129.975 182.843C130.284 182.24 130.711 181.784 131.255 181.475C131.799 181.165 132.423 181.011 133.127 181.011C133.644 181.011 134.095 181.091 134.479 181.251C134.868 181.411 135.196 181.627 135.463 181.899C135.735 182.171 135.954 182.483 136.119 182.835C136.284 183.181 136.404 183.552 136.479 183.947C136.554 184.336 136.591 184.725 136.591 185.115V189.867H135.407ZM129.159 189.867V181.227H130.223V183.355H130.343V189.867H129.159ZM142.204 190.107C141.335 190.107 140.599 189.912 139.996 189.523C139.393 189.133 138.935 188.597 138.62 187.915C138.311 187.227 138.151 186.437 138.14 185.547C138.151 184.64 138.316 183.845 138.636 183.163C138.956 182.475 139.417 181.941 140.02 181.563C140.623 181.179 141.353 180.987 142.212 180.987C143.087 180.987 143.847 181.2 144.492 181.627C145.143 182.053 145.588 182.637 145.828 183.379L144.676 183.747C144.473 183.229 144.151 182.829 143.708 182.547C143.271 182.259 142.769 182.115 142.204 182.115C141.569 182.115 141.044 182.261 140.628 182.555C140.212 182.843 139.903 183.245 139.7 183.763C139.497 184.28 139.393 184.875 139.388 185.547C139.399 186.581 139.639 187.413 140.108 188.043C140.577 188.667 141.276 188.979 142.204 188.979C142.791 188.979 143.289 188.845 143.7 188.579C144.116 188.307 144.431 187.912 144.644 187.395L145.828 187.747C145.508 188.515 145.039 189.101 144.42 189.507C143.801 189.907 143.063 190.107 142.204 190.107ZM147.479 189.867V181.227H148.535V183.307L148.327 183.035C148.423 182.779 148.549 182.544 148.703 182.331C148.858 182.112 149.026 181.933 149.207 181.795C149.431 181.597 149.693 181.448 149.991 181.347C150.29 181.24 150.591 181.179 150.895 181.163C151.199 181.141 151.477 181.163 151.727 181.227V182.331C151.413 182.251 151.069 182.232 150.695 182.275C150.322 182.317 149.978 182.467 149.663 182.723C149.375 182.947 149.159 183.216 149.015 183.531C148.871 183.84 148.775 184.171 148.727 184.523C148.679 184.869 148.655 185.213 148.655 185.555V189.867H147.479ZM156.745 190.107C155.902 190.107 155.171 189.92 154.553 189.547C153.939 189.173 153.462 188.648 153.121 187.971C152.779 187.293 152.609 186.499 152.609 185.587C152.609 184.643 152.777 183.827 153.113 183.139C153.449 182.451 153.921 181.92 154.529 181.547C155.142 181.173 155.865 180.987 156.697 180.987C157.55 180.987 158.278 181.184 158.881 181.579C159.483 181.968 159.939 182.528 160.249 183.259C160.558 183.989 160.699 184.861 160.673 185.875H159.473V185.459C159.451 184.339 159.209 183.493 158.745 182.923C158.286 182.352 157.614 182.067 156.729 182.067C155.801 182.067 155.089 182.368 154.593 182.971C154.102 183.573 153.857 184.432 153.857 185.547C153.857 186.635 154.102 187.48 154.593 188.083C155.089 188.68 155.79 188.979 156.697 188.979C157.315 188.979 157.854 188.837 158.313 188.555C158.777 188.267 159.142 187.853 159.409 187.315L160.505 187.739C160.163 188.491 159.659 189.075 158.993 189.491C158.331 189.901 157.582 190.107 156.745 190.107ZM153.441 185.875V184.891H160.041V185.875H153.441ZM164.764 190.107C164.113 190.107 163.567 189.989 163.124 189.755C162.687 189.52 162.359 189.208 162.14 188.819C161.921 188.429 161.812 188.005 161.812 187.547C161.812 187.077 161.905 186.677 162.092 186.347C162.284 186.011 162.543 185.736 162.868 185.523C163.199 185.309 163.58 185.147 164.012 185.035C164.449 184.928 164.932 184.835 165.46 184.755C165.993 184.669 166.513 184.597 167.02 184.539C167.532 184.475 167.98 184.413 168.364 184.355L167.948 184.611C167.964 183.757 167.799 183.125 167.452 182.715C167.105 182.304 166.503 182.099 165.644 182.099C165.052 182.099 164.551 182.232 164.14 182.499C163.735 182.765 163.449 183.187 163.284 183.763L162.14 183.427C162.337 182.653 162.735 182.053 163.332 181.627C163.929 181.2 164.705 180.987 165.66 180.987C166.449 180.987 167.119 181.136 167.668 181.435C168.223 181.728 168.615 182.155 168.844 182.715C168.951 182.965 169.02 183.245 169.052 183.555C169.084 183.864 169.1 184.179 169.1 184.499V189.867H168.052V187.699L168.356 187.827C168.063 188.568 167.607 189.133 166.988 189.523C166.369 189.912 165.628 190.107 164.764 190.107ZM164.9 189.091C165.449 189.091 165.929 188.992 166.34 188.795C166.751 188.597 167.081 188.328 167.332 187.987C167.583 187.64 167.745 187.251 167.82 186.819C167.884 186.541 167.919 186.237 167.924 185.907C167.929 185.571 167.932 185.32 167.932 185.155L168.38 185.387C167.98 185.44 167.545 185.493 167.076 185.547C166.612 185.6 166.153 185.661 165.7 185.731C165.252 185.8 164.847 185.883 164.484 185.979C164.239 186.048 164.001 186.147 163.772 186.275C163.543 186.397 163.353 186.563 163.204 186.771C163.06 186.979 162.988 187.237 162.988 187.547C162.988 187.797 163.049 188.04 163.172 188.275C163.3 188.509 163.503 188.704 163.78 188.859C164.063 189.013 164.436 189.091 164.9 189.091ZM174.407 190.099C173.393 190.099 172.559 189.88 171.903 189.443C171.252 189.005 170.852 188.397 170.703 187.619L171.903 187.419C172.031 187.909 172.321 188.301 172.775 188.595C173.233 188.883 173.799 189.027 174.47 189.027C175.127 189.027 175.644 188.891 176.023 188.619C176.401 188.341 176.591 187.965 176.591 187.491C176.591 187.224 176.529 187.008 176.407 186.843C176.289 186.672 176.047 186.515 175.679 186.371C175.311 186.227 174.761 186.056 174.031 185.859C173.247 185.645 172.633 185.432 172.191 185.219C171.748 185.005 171.433 184.76 171.247 184.483C171.06 184.2 170.967 183.856 170.967 183.451C170.967 182.96 171.105 182.531 171.383 182.163C171.66 181.789 172.044 181.501 172.535 181.299C173.025 181.091 173.596 180.987 174.247 180.987C174.897 180.987 175.479 181.093 175.991 181.307C176.508 181.515 176.924 181.808 177.239 182.187C177.553 182.565 177.74 183.005 177.799 183.507L176.599 183.723C176.519 183.216 176.265 182.816 175.839 182.523C175.417 182.224 174.881 182.069 174.231 182.059C173.617 182.043 173.119 182.16 172.735 182.411C172.351 182.656 172.159 182.984 172.159 183.395C172.159 183.624 172.228 183.821 172.367 183.987C172.505 184.147 172.756 184.299 173.119 184.443C173.487 184.587 174.009 184.744 174.687 184.915C175.481 185.117 176.105 185.331 176.559 185.555C177.012 185.779 177.335 186.043 177.527 186.347C177.719 186.651 177.815 187.027 177.815 187.475C177.815 188.291 177.511 188.933 176.903 189.403C176.3 189.867 175.468 190.099 174.407 190.099ZM183.245 190.107C182.402 190.107 181.671 189.92 181.053 189.547C180.439 189.173 179.962 188.648 179.621 187.971C179.279 187.293 179.109 186.499 179.109 185.587C179.109 184.643 179.277 183.827 179.613 183.139C179.949 182.451 180.421 181.92 181.029 181.547C181.642 181.173 182.365 180.987 183.197 180.987C184.05 180.987 184.778 181.184 185.381 181.579C185.983 181.968 186.439 182.528 186.749 183.259C187.058 183.989 187.199 184.861 187.173 185.875H185.973V185.459C185.951 184.339 185.709 183.493 185.245 182.923C184.786 182.352 184.114 182.067 183.229 182.067C182.301 182.067 181.589 182.368 181.093 182.971C180.602 183.573 180.357 184.432 180.357 185.547C180.357 186.635 180.602 187.48 181.093 188.083C181.589 188.68 182.29 188.979 183.197 188.979C183.815 188.979 184.354 188.837 184.813 188.555C185.277 188.267 185.642 187.853 185.909 187.315L187.005 187.739C186.663 188.491 186.159 189.075 185.493 189.491C184.831 189.901 184.082 190.107 183.245 190.107ZM179.941 185.875V184.891H186.541V185.875H179.941ZM192.151 189.867V178.347H196.599C196.711 178.347 196.837 178.352 196.975 178.363C197.119 178.368 197.263 178.384 197.407 178.411C198.01 178.501 198.519 178.712 198.935 179.043C199.357 179.368 199.674 179.779 199.887 180.275C200.106 180.771 200.215 181.32 200.215 181.923C200.215 182.52 200.106 183.067 199.887 183.563C199.669 184.059 199.349 184.472 198.927 184.803C198.511 185.128 198.005 185.336 197.407 185.427C197.263 185.448 197.119 185.464 196.975 185.475C196.837 185.485 196.711 185.491 196.599 185.491H193.327V189.867H192.151ZM193.327 184.371H196.567C196.663 184.371 196.775 184.365 196.903 184.355C197.031 184.344 197.157 184.325 197.279 184.299C197.674 184.213 197.997 184.051 198.247 183.811C198.503 183.571 198.693 183.285 198.815 182.955C198.943 182.624 199.007 182.28 199.007 181.923C199.007 181.565 198.943 181.221 198.815 180.891C198.693 180.555 198.503 180.267 198.247 180.027C197.997 179.787 197.674 179.624 197.279 179.539C197.157 179.512 197.031 179.496 196.903 179.491C196.775 179.48 196.663 179.475 196.567 179.475H193.327V184.371ZM205.417 190.107C204.574 190.107 203.843 189.92 203.225 189.547C202.611 189.173 202.134 188.648 201.793 187.971C201.451 187.293 201.281 186.499 201.281 185.587C201.281 184.643 201.449 183.827 201.785 183.139C202.121 182.451 202.593 181.92 203.201 181.547C203.814 181.173 204.537 180.987 205.369 180.987C206.222 180.987 206.95 181.184 207.553 181.579C208.155 181.968 208.611 182.528 208.921 183.259C209.23 183.989 209.371 184.861 209.345 185.875H208.145V185.459C208.123 184.339 207.881 183.493 207.417 182.923C206.958 182.352 206.286 182.067 205.401 182.067C204.473 182.067 203.761 182.368 203.265 182.971C202.774 183.573 202.529 184.432 202.529 185.547C202.529 186.635 202.774 187.48 203.265 188.083C203.761 188.68 204.462 188.979 205.369 188.979C205.987 188.979 206.526 188.837 206.985 188.555C207.449 188.267 207.814 187.853 208.081 187.315L209.177 187.739C208.835 188.491 208.331 189.075 207.665 189.491C207.003 189.901 206.254 190.107 205.417 190.107ZM202.113 185.875V184.891H208.713V185.875H202.113ZM211.12 189.867V181.227H212.176V183.307L211.968 183.035C212.064 182.779 212.189 182.544 212.344 182.331C212.499 182.112 212.667 181.933 212.848 181.795C213.072 181.597 213.333 181.448 213.632 181.347C213.931 181.24 214.232 181.179 214.536 181.163C214.84 181.141 215.117 181.163 215.368 181.227V182.331C215.053 182.251 214.709 182.232 214.336 182.275C213.963 182.317 213.619 182.467 213.304 182.723C213.016 182.947 212.8 183.216 212.656 183.531C212.512 183.84 212.416 184.171 212.368 184.523C212.32 184.869 212.296 185.213 212.296 185.555V189.867H211.12ZM223.153 189.867V179.475H219.129V178.347H228.353V179.475H224.329V189.867H223.153ZM228.839 189.867V181.227H229.895V183.307L229.687 183.035C229.783 182.779 229.908 182.544 230.063 182.331C230.217 182.112 230.385 181.933 230.567 181.795C230.791 181.597 231.052 181.448 231.351 181.347C231.649 181.24 231.951 181.179 232.255 181.163C232.559 181.141 232.836 181.163 233.087 181.227V182.331C232.772 182.251 232.428 182.232 232.055 182.275C231.681 182.317 231.337 182.467 231.023 182.723C230.735 182.947 230.519 183.216 230.375 183.531C230.231 183.84 230.135 184.171 230.087 184.523C230.039 184.869 230.015 185.213 230.015 185.555V189.867H228.839ZM236.748 190.107C236.098 190.107 235.551 189.989 235.108 189.755C234.671 189.52 234.343 189.208 234.124 188.819C233.906 188.429 233.796 188.005 233.796 187.547C233.796 187.077 233.89 186.677 234.076 186.347C234.268 186.011 234.527 185.736 234.852 185.523C235.183 185.309 235.564 185.147 235.996 185.035C236.434 184.928 236.916 184.835 237.444 184.755C237.978 184.669 238.498 184.597 239.004 184.539C239.516 184.475 239.964 184.413 240.348 184.355L239.932 184.611C239.948 183.757 239.783 183.125 239.436 182.715C239.09 182.304 238.487 182.099 237.628 182.099C237.036 182.099 236.535 182.232 236.124 182.499C235.719 182.765 235.434 183.187 235.268 183.763L234.124 183.427C234.322 182.653 234.719 182.053 235.316 181.627C235.914 181.2 236.69 180.987 237.644 180.987C238.434 180.987 239.103 181.136 239.652 181.435C240.207 181.728 240.599 182.155 240.828 182.715C240.935 182.965 241.004 183.245 241.036 183.555C241.068 183.864 241.084 184.179 241.084 184.499V189.867H240.036V187.699L240.34 187.827C240.047 188.568 239.591 189.133 238.972 189.523C238.354 189.912 237.612 190.107 236.748 190.107ZM236.884 189.091C237.434 189.091 237.914 188.992 238.324 188.795C238.735 188.597 239.066 188.328 239.316 187.987C239.567 187.64 239.73 187.251 239.804 186.819C239.868 186.541 239.903 186.237 239.908 185.907C239.914 185.571 239.916 185.32 239.916 185.155L240.364 185.387C239.964 185.44 239.53 185.493 239.06 185.547C238.596 185.6 238.138 185.661 237.684 185.731C237.236 185.8 236.831 185.883 236.468 185.979C236.223 186.048 235.986 186.147 235.756 186.275C235.527 186.397 235.338 186.563 235.188 186.771C235.044 186.979 234.972 187.237 234.972 187.547C234.972 187.797 235.034 188.04 235.156 188.275C235.284 188.509 235.487 188.704 235.764 188.859C236.047 189.013 236.42 189.091 236.884 189.091ZM249.407 189.867V185.459C249.407 184.979 249.362 184.539 249.271 184.139C249.18 183.733 249.034 183.381 248.831 183.083C248.634 182.779 248.375 182.544 248.055 182.379C247.74 182.213 247.356 182.131 246.903 182.131C246.487 182.131 246.119 182.203 245.799 182.347C245.484 182.491 245.218 182.699 244.999 182.971C244.786 183.237 244.623 183.563 244.511 183.947C244.399 184.331 244.343 184.768 244.343 185.259L243.511 185.075C243.511 184.189 243.666 183.445 243.975 182.843C244.284 182.24 244.711 181.784 245.255 181.475C245.799 181.165 246.423 181.011 247.127 181.011C247.644 181.011 248.095 181.091 248.479 181.251C248.868 181.411 249.196 181.627 249.463 181.899C249.735 182.171 249.954 182.483 250.119 182.835C250.284 183.181 250.404 183.552 250.479 183.947C250.554 184.336 250.591 184.725 250.591 185.115V189.867H249.407ZM243.159 189.867V181.227H244.223V183.355H244.343V189.867H243.159ZM255.891 190.099C254.878 190.099 254.043 189.88 253.387 189.443C252.736 189.005 252.336 188.397 252.187 187.619L253.387 187.419C253.515 187.909 253.806 188.301 254.259 188.595C254.718 188.883 255.283 189.027 255.955 189.027C256.611 189.027 257.128 188.891 257.507 188.619C257.886 188.341 258.075 187.965 258.075 187.491C258.075 187.224 258.014 187.008 257.891 186.843C257.774 186.672 257.531 186.515 257.163 186.371C256.795 186.227 256.246 186.056 255.515 185.859C254.731 185.645 254.118 185.432 253.675 185.219C253.232 185.005 252.918 184.76 252.731 184.483C252.544 184.2 252.451 183.856 252.451 183.451C252.451 182.96 252.59 182.531 252.867 182.163C253.144 181.789 253.528 181.501 254.019 181.299C254.51 181.091 255.08 180.987 255.731 180.987C256.382 180.987 256.963 181.093 257.475 181.307C257.992 181.515 258.408 181.808 258.723 182.187C259.038 182.565 259.224 183.005 259.283 183.507L258.083 183.723C258.003 183.216 257.75 182.816 257.323 182.523C256.902 182.224 256.366 182.069 255.715 182.059C255.102 182.043 254.603 182.16 254.219 182.411C253.835 182.656 253.643 182.984 253.643 183.395C253.643 183.624 253.712 183.821 253.851 183.987C253.99 184.147 254.24 184.299 254.603 184.443C254.971 184.587 255.494 184.744 256.171 184.915C256.966 185.117 257.59 185.331 258.043 185.555C258.496 185.779 258.819 186.043 259.011 186.347C259.203 186.651 259.299 187.027 259.299 187.475C259.299 188.291 258.995 188.933 258.387 189.403C257.784 189.867 256.952 190.099 255.891 190.099ZM261.929 189.867V180.587C261.929 180.363 261.94 180.141 261.961 179.923C261.988 179.704 262.038 179.496 262.113 179.299C262.188 179.096 262.305 178.909 262.465 178.739C262.641 178.547 262.833 178.408 263.041 178.323C263.249 178.232 263.465 178.173 263.689 178.147C263.918 178.12 264.142 178.107 264.361 178.107H265.465V179.099H264.441C263.993 179.099 263.657 179.208 263.433 179.427C263.214 179.645 263.105 179.989 263.105 180.459V189.867H261.929ZM260.433 182.235V181.227H265.465V182.235H260.433ZM270.089 190.107C269.246 190.107 268.515 189.92 267.897 189.547C267.283 189.173 266.806 188.648 266.465 187.971C266.123 187.293 265.953 186.499 265.953 185.587C265.953 184.643 266.121 183.827 266.457 183.139C266.793 182.451 267.265 181.92 267.873 181.547C268.486 181.173 269.209 180.987 270.041 180.987C270.894 180.987 271.622 181.184 272.225 181.579C272.827 181.968 273.283 182.528 273.593 183.259C273.902 183.989 274.043 184.861 274.017 185.875H272.817V185.459C272.795 184.339 272.553 183.493 272.089 182.923C271.63 182.352 270.958 182.067 270.073 182.067C269.145 182.067 268.433 182.368 267.937 182.971C267.446 183.573 267.201 184.432 267.201 185.547C267.201 186.635 267.446 187.48 267.937 188.083C268.433 188.68 269.134 188.979 270.041 188.979C270.659 188.979 271.198 188.837 271.657 188.555C272.121 188.267 272.486 187.853 272.753 187.315L273.849 187.739C273.507 188.491 273.003 189.075 272.337 189.491C271.675 189.901 270.926 190.107 270.089 190.107ZM266.785 185.875V184.891H273.385V185.875H266.785ZM275.792 189.867V181.227H276.848V183.307L276.64 183.035C276.736 182.779 276.861 182.544 277.016 182.331C277.171 182.112 277.339 181.933 277.52 181.795C277.744 181.597 278.005 181.448 278.304 181.347C278.603 181.24 278.904 181.179 279.208 181.163C279.512 181.141 279.789 181.163 280.04 181.227V182.331C279.725 182.251 279.381 182.232 279.008 182.275C278.635 182.317 278.291 182.467 277.976 182.723C277.688 182.947 277.472 183.216 277.328 183.531C277.184 183.84 277.088 184.171 277.04 184.523C276.992 184.869 276.968 185.213 276.968 185.555V189.867H275.792Z" fill="#394508"/>
</svg>
