<svg width="330" height="222" viewBox="0 0 330 222" fill="none" xmlns="http://www.w3.org/2000/svg">
<rect width="330" height="222" rx="10.6667" fill="#D2FD9C"/>
<path d="M197.845 89.5C197.845 104.688 185.533 117 170.345 117C155.157 117 142.845 104.688 142.845 89.5C142.845 74.3122 155.157 62 170.345 62C185.533 62 197.845 74.3122 197.845 89.5Z" fill="#394508"/>
<path fill-rule="evenodd" clip-rule="evenodd" d="M226.836 90.0034L226.336 89.9946C226.342 89.6638 226.345 89.3322 226.345 89C226.345 88.6678 226.342 88.3362 226.336 88.0054L226.836 87.9966C226.842 88.3304 226.845 88.6648 226.845 89C226.845 89.3352 226.842 89.6696 226.836 90.0034ZM226.766 86.0016L226.267 86.0279C226.232 85.3651 226.185 84.7054 226.127 84.049L226.625 84.005C226.684 84.6673 226.731 85.3329 226.766 86.0016ZM226.414 82.0164L225.917 82.0781C225.836 81.4212 225.742 80.7677 225.638 80.1181L226.132 80.0387C226.237 80.6942 226.331 81.3535 226.414 82.0164ZM225.779 78.0709L225.288 78.168C225.16 77.5179 225.02 76.872 224.869 76.2304L225.355 76.1158C225.508 76.7632 225.649 77.415 225.779 78.0709ZM224.862 74.1787L224.38 74.3107C224.205 73.6728 224.02 73.0394 223.823 72.4109L224.3 72.2616C224.499 72.8958 224.686 73.535 224.862 74.1787ZM223.669 70.3634L223.197 70.5298C222.977 69.9057 222.746 69.2868 222.505 68.6732L222.97 68.49C223.214 69.1092 223.447 69.7337 223.669 70.3634ZM222.204 66.6437L221.746 66.8435C221.482 66.2374 221.207 65.6369 220.922 65.0423L221.373 64.8262C221.66 65.4262 221.938 66.0321 222.204 66.6437ZM220.476 63.0384L220.033 63.2705C219.726 62.6849 219.409 62.1054 219.082 61.5323L219.516 61.2845C219.846 61.8627 220.166 62.4474 220.476 63.0384ZM218.495 59.5663C218.144 58.9992 217.783 58.4389 217.412 57.8855L216.997 58.1637C217.364 58.7121 217.722 59.2675 218.07 59.8295L218.495 59.5663ZM216.271 56.244L215.865 56.5368C215.478 56.0011 215.082 55.4725 214.677 54.9514L215.071 54.6444C215.48 55.1702 215.88 55.7035 216.271 56.244ZM213.816 53.0886L213.432 53.4094C213.008 52.9026 212.576 52.4035 212.134 51.9124L212.506 51.5781C212.951 52.0737 213.388 52.5773 213.816 53.0886ZM211.143 50.1151L210.784 50.4623C210.325 49.9871 209.858 49.5199 209.382 49.0612L209.73 48.7014C210.209 49.1643 210.68 49.6356 211.143 50.1151ZM208.267 47.3387L207.932 47.7106C207.441 47.2691 206.942 46.8363 206.435 46.4123L206.756 46.0288C207.267 46.4566 207.771 46.8933 208.267 47.3387ZM205.2 44.7735L204.893 45.1681C204.372 44.7628 203.844 44.3665 203.308 43.9795L203.601 43.5742C204.141 43.9646 204.675 44.3645 205.2 44.7735ZM201.959 42.4323L201.681 42.8478C201.133 42.4806 200.577 42.123 200.015 41.7751L200.278 41.3499C200.845 41.701 201.406 42.0619 201.959 42.4323ZM198.56 40.3284L198.312 40.7626C197.739 40.4356 197.16 40.1184 196.574 39.8115L196.806 39.3686C197.397 39.6784 197.982 39.9984 198.56 40.3284ZM195.019 38.472L194.802 38.9229C194.208 38.6379 193.607 38.3632 193.001 38.0989L193.201 37.6406C193.813 37.9072 194.419 38.1844 195.019 38.472ZM191.355 36.875L191.171 37.3402C190.558 37.0986 189.939 36.8676 189.315 36.6474L189.481 36.1759C190.111 36.398 190.736 36.6311 191.355 36.875ZM187.583 35.5444L187.434 36.0216C186.805 35.825 186.172 35.6392 185.534 35.4646L185.666 34.9823C186.31 35.1586 186.949 35.346 187.583 35.5444ZM183.729 34.4893L183.614 34.976C182.973 34.8249 182.327 34.685 181.677 34.5564L181.774 34.0659C182.43 34.1957 183.081 34.3369 183.729 34.4893ZM179.806 33.7132L179.727 34.2068C179.077 34.1023 178.424 34.0091 177.767 33.9274L177.828 33.4312C178.491 33.5137 179.151 33.6077 179.806 33.7132ZM175.84 33.2197L175.796 33.7178C175.139 33.6598 174.48 33.6132 173.817 33.5782L173.843 33.0789C174.512 33.1142 175.177 33.1612 175.84 33.2197ZM171.848 33.0088L171.839 33.5087C171.508 33.5029 171.177 33.5 170.845 33.5C170.512 33.5 170.181 33.5029 169.85 33.5087L169.841 33.0088C170.175 33.0029 170.51 33 170.845 33C171.18 33 171.514 33.0029 171.848 33.0088ZM167.846 33.0789L167.873 33.5782C167.21 33.6132 166.55 33.6598 165.894 33.7178L165.85 33.2197C166.512 33.1612 167.178 33.1142 167.846 33.0789ZM163.861 33.4312L163.923 33.9274C163.266 34.0091 162.612 34.1023 161.963 34.2068L161.883 33.7132C162.539 33.6077 163.198 33.5137 163.861 33.4312ZM159.916 34.0659L160.013 34.5564C159.363 34.685 158.717 34.8249 158.075 34.976L157.961 34.4893C158.608 34.3369 159.26 34.1957 159.916 34.0659ZM156.023 34.9823L156.155 35.4646C155.517 35.6392 154.884 35.825 154.256 36.0216L154.106 35.5444C154.741 35.346 155.38 35.1586 156.023 34.9823ZM152.208 36.1759L152.375 36.6474C151.75 36.8676 151.132 37.0986 150.518 37.3402L150.335 36.875C150.954 36.6311 151.578 36.398 152.208 36.1759ZM148.488 37.6406L148.688 38.099C148.082 38.3632 147.482 38.6379 146.887 38.9229L146.671 38.472C147.271 38.1844 147.877 37.9072 148.488 37.6406ZM144.883 39.3686L145.115 39.8115C144.53 40.1185 143.95 40.4356 143.377 40.7626L143.129 40.3284C143.707 39.9984 144.292 39.6784 144.883 39.3686ZM141.411 41.35L141.674 41.7751C141.112 42.123 140.557 42.4806 140.008 42.8478L139.73 42.4323C140.284 42.0619 140.844 41.701 141.411 41.35ZM138.089 43.5742L138.381 43.9795C137.846 44.3665 137.317 44.7628 136.796 45.1682L136.489 44.7735C137.015 44.3645 137.548 43.9646 138.089 43.5742ZM134.933 46.0288L135.254 46.4123C134.747 46.8363 134.248 47.2691 133.757 47.7106L133.423 47.3388C133.918 46.8933 134.422 46.4566 134.933 46.0288ZM131.96 48.7015L132.307 49.0612C131.832 49.5199 131.365 49.9871 130.906 50.4624L130.546 50.1151C131.009 49.6356 131.48 49.1643 131.96 48.7015ZM129.183 51.5781L129.555 51.9124C129.114 52.4036 128.681 52.9026 128.257 53.4094L127.874 53.0886C128.301 52.5773 128.738 52.0737 129.183 51.5781ZM126.618 54.6444L127.013 54.9514C126.607 55.4725 126.211 56.0011 125.824 56.5368L125.419 56.244C125.809 55.7035 126.209 55.1702 126.618 54.6444ZM124.277 57.8855L124.693 58.1637C124.325 58.7121 123.968 59.2675 123.62 59.8295L123.195 59.5663C123.546 58.9993 123.907 58.4389 124.277 57.8855ZM122.173 61.2845L122.607 61.5323C122.28 62.1054 121.963 62.6849 121.656 63.2705L121.213 63.0384C121.523 62.4475 121.843 61.8627 122.173 61.2845ZM120.317 64.8262L120.768 65.0423C120.483 65.6369 120.208 66.2374 119.944 66.8435L119.485 66.6437C119.752 66.0321 120.029 65.4262 120.317 64.8262ZM118.72 68.49L119.185 68.6732C118.943 69.2868 118.712 69.9058 118.492 70.5298L118.021 70.3635C118.243 69.7337 118.476 69.1092 118.72 68.49ZM117.389 72.2616L117.866 72.4109C117.67 73.0394 117.484 73.6728 117.309 74.3107L116.827 74.1787C117.003 73.535 117.191 72.8959 117.389 72.2616ZM116.334 76.1158L116.821 76.2304C116.67 76.872 116.53 77.518 116.401 78.168L115.911 78.0709C116.04 77.415 116.182 76.7632 116.334 76.1158ZM115.558 80.0387L116.052 80.1181C115.947 80.7677 115.854 81.4212 115.772 82.0782L115.276 82.0164C115.358 81.3535 115.452 80.6942 115.558 80.0387ZM115.064 84.005L115.563 84.0491C115.504 84.7054 115.458 85.3651 115.423 86.0279L114.924 86.0016C114.959 85.3329 115.006 84.6673 115.064 84.005ZM114.854 87.9966C114.848 88.3304 114.845 88.6648 114.845 89C114.845 89.3352 114.848 89.6696 114.854 90.0034L115.353 89.9946C115.348 89.6638 115.345 89.3322 115.345 89C115.345 88.6678 115.348 88.3362 115.353 88.0054L114.854 87.9966ZM114.924 91.9984L115.423 91.9721C115.458 92.6349 115.504 93.2946 115.563 93.951L115.064 93.995C115.006 93.3327 114.959 92.6671 114.924 91.9984ZM115.276 95.9836L115.772 95.9219C115.854 96.5788 115.947 97.2323 116.052 97.8819L115.558 97.9613C115.452 97.3058 115.358 96.6465 115.276 95.9836ZM115.911 99.9291L116.401 99.832C116.53 100.482 116.67 101.128 116.821 101.77L116.334 101.884C116.182 101.237 116.04 100.585 115.911 99.9291ZM116.827 103.821L117.309 103.689C117.484 104.327 117.67 104.961 117.866 105.589L117.389 105.738C117.191 105.104 117.003 104.465 116.827 103.821ZM118.021 107.637C118.243 108.266 118.476 108.891 118.72 109.51L119.185 109.327C118.943 108.713 118.712 108.094 118.492 107.47L118.021 107.637ZM119.485 111.356L119.944 111.156C120.208 111.763 120.483 112.363 120.768 112.958L120.317 113.174C120.029 112.574 119.752 111.968 119.485 111.356ZM121.213 114.962L121.656 114.729C121.963 115.315 122.28 115.895 122.607 116.468L122.173 116.716C121.843 116.137 121.523 115.553 121.213 114.962ZM123.195 118.434L123.62 118.171C123.968 118.733 124.325 119.288 124.693 119.836L124.277 120.114C123.907 119.561 123.546 119.001 123.195 118.434ZM125.419 121.756L125.824 121.463C126.211 121.999 126.607 122.527 127.013 123.049L126.618 123.356C126.209 122.83 125.809 122.297 125.419 121.756ZM127.874 124.911L128.257 124.591C128.681 125.097 129.114 125.596 129.555 126.088L129.183 126.422C128.738 125.926 128.301 125.423 127.874 124.911ZM130.546 127.885L130.906 127.538C131.365 128.013 131.832 128.48 132.307 128.939L131.96 129.299C131.48 128.836 131.009 128.364 130.546 127.885ZM133.423 130.661L133.757 130.289C134.248 130.731 134.747 131.164 135.254 131.588L134.933 131.971C134.422 131.543 133.918 131.107 133.423 130.661ZM136.489 133.227L136.796 132.832C137.317 133.237 137.846 133.634 138.382 134.021L138.089 134.426C137.548 134.035 137.015 133.636 136.489 133.227ZM139.73 135.568L140.008 135.152C140.557 135.519 141.112 135.877 141.674 136.225L141.411 136.65C140.844 136.299 140.284 135.938 139.73 135.568ZM143.129 137.672L143.377 137.237C143.95 137.564 144.53 137.882 145.115 138.189L144.883 138.631C144.292 138.322 143.707 138.002 143.129 137.672ZM146.671 139.528L146.887 139.077C147.482 139.362 148.082 139.637 148.688 139.901L148.488 140.359C147.877 140.093 147.271 139.816 146.671 139.528ZM150.335 141.125L150.518 140.66C151.132 140.901 151.75 141.132 152.375 141.353L152.208 141.824C151.578 141.602 150.954 141.369 150.335 141.125ZM154.106 142.456L154.256 141.978C154.884 142.175 155.518 142.361 156.155 142.535L156.023 143.018C155.38 142.841 154.741 142.654 154.106 142.456ZM157.961 143.511L158.075 143.024C158.717 143.175 159.363 143.315 160.013 143.444L159.916 143.934C159.26 143.804 158.608 143.663 157.961 143.511ZM161.883 144.287L161.963 143.793C162.612 143.898 163.266 143.991 163.923 144.073L163.861 144.569C163.198 144.486 162.539 144.392 161.883 144.287ZM165.85 144.78L165.894 144.282C166.55 144.34 167.21 144.387 167.873 144.422L167.846 144.921C167.178 144.886 166.512 144.839 165.85 144.78ZM169.841 144.991L169.85 144.491C170.181 144.497 170.513 144.5 170.845 144.5C171.177 144.5 171.508 144.497 171.839 144.491L171.848 144.991C171.514 144.997 171.18 145 170.845 145C170.51 145 170.175 144.997 169.841 144.991ZM173.843 144.921L173.817 144.422C174.48 144.387 175.139 144.34 175.796 144.282L175.84 144.78C175.177 144.839 174.512 144.886 173.843 144.921ZM177.828 144.569L177.767 144.073C178.424 143.991 179.077 143.898 179.727 143.793L179.806 144.287C179.151 144.392 178.491 144.486 177.828 144.569ZM181.774 143.934L181.677 143.444C182.327 143.315 182.973 143.175 183.614 143.024L183.729 143.511C183.081 143.663 182.43 143.804 181.774 143.934ZM185.666 143.018L185.534 142.535C186.172 142.361 186.805 142.175 187.434 141.978L187.583 142.456C186.949 142.654 186.31 142.841 185.666 143.018ZM189.481 141.824L189.315 141.353C189.939 141.132 190.558 140.901 191.172 140.66L191.355 141.125C190.736 141.369 190.111 141.602 189.481 141.824ZM193.201 140.359L193.001 139.901C193.607 139.637 194.208 139.362 194.802 139.077L195.019 139.528C194.419 139.816 193.813 140.093 193.201 140.359ZM196.806 138.631L196.574 138.189C197.16 137.882 197.739 137.564 198.312 137.237L198.56 137.672C197.982 138.002 197.397 138.322 196.806 138.631ZM200.278 136.65C200.845 136.299 201.406 135.938 201.959 135.568L201.681 135.152C201.133 135.519 200.577 135.877 200.015 136.225L200.278 136.65ZM203.601 134.426L203.308 134.021C203.844 133.634 204.372 133.237 204.893 132.832L205.2 133.226C204.675 133.636 204.141 134.035 203.601 134.426ZM206.756 131.971L206.435 131.588C206.942 131.164 207.441 130.731 207.932 130.289L208.267 130.661C207.771 131.107 207.267 131.543 206.756 131.971ZM209.73 129.299L209.382 128.939C209.858 128.48 210.325 128.013 210.784 127.538L211.143 127.885C210.68 128.364 210.209 128.836 209.73 129.299ZM212.506 126.422L212.134 126.088C212.576 125.596 213.008 125.097 213.432 124.591L213.816 124.911C213.388 125.423 212.951 125.926 212.506 126.422ZM215.071 123.356L214.677 123.049C215.082 122.527 215.478 121.999 215.865 121.463L216.271 121.756C215.88 122.297 215.48 122.83 215.071 123.356ZM217.412 120.114L216.997 119.836C217.364 119.288 217.722 118.733 218.07 118.17L218.495 118.434C218.144 119.001 217.783 119.561 217.412 120.114ZM219.516 116.716C219.846 116.137 220.166 115.553 220.476 114.962L220.033 114.729C219.726 115.315 219.409 115.895 219.082 116.468L219.516 116.716ZM221.373 113.174L220.922 112.958C221.207 112.363 221.482 111.763 221.746 111.156L222.204 111.356C221.938 111.968 221.66 112.574 221.373 113.174ZM222.97 109.51L222.505 109.327C222.746 108.713 222.977 108.094 223.197 107.47L223.669 107.637C223.447 108.266 223.214 108.891 222.97 109.51ZM224.3 105.738L223.823 105.589C224.02 104.961 224.205 104.327 224.38 103.689L224.862 103.821C224.686 104.465 224.499 105.104 224.3 105.738ZM225.355 101.884L224.869 101.77C225.02 101.128 225.16 100.482 225.288 99.832L225.779 99.9291C225.649 100.585 225.508 101.237 225.355 101.884ZM226.132 97.9613L225.638 97.8819C225.742 97.2322 225.836 96.5788 225.917 95.9218L226.414 95.9836C226.331 96.6465 226.237 97.3058 226.132 97.9613ZM226.625 93.995L226.127 93.9509C226.185 93.2946 226.232 92.6349 226.267 91.9721L226.766 91.9984C226.731 92.6671 226.684 93.3327 226.625 93.995Z" fill="#394508"/>
<path d="M182.086 96.0436H170.866L173.689 98.866L170.553 102.002L159.845 91.3984H182.086V96.0436Z" fill="white"/>
<path d="M182.258 87.6035H160.017V82.9584H171.236L168.414 80.136L171.55 77L182.258 87.6035Z" fill="white"/>
<path d="M222.155 48.155C222.155 54.8681 216.713 60.3101 210 60.3101C203.287 60.3101 197.845 54.8681 197.845 48.155C197.845 41.442 203.287 36 210 36C216.713 36 222.155 41.442 222.155 48.155Z" fill="white"/>
<path d="M127.155 77.155C127.155 83.8681 121.713 89.3101 115 89.3101C108.287 89.3101 102.845 83.8681 102.845 77.155C102.845 70.442 108.287 65 115 65C121.713 65 127.155 70.442 127.155 77.155Z" fill="white"/>
<path d="M227.155 125.155C227.155 131.868 221.713 137.31 215 137.31C208.287 137.31 202.845 131.868 202.845 125.155C202.845 118.442 208.287 113 215 113C221.713 113 227.155 118.442 227.155 125.155Z" fill="white"/>
<path d="M222.085 125.398H221.453V123.594C221.453 123.511 221.385 123.445 221.3 123.445C221.296 123.445 221.293 123.447 221.289 123.447C221.285 123.447 221.281 123.445 221.277 123.445H220.693L219.678 121.647H220.604C220.688 121.647 220.756 121.581 220.756 121.498C220.756 121.415 220.688 121.348 220.604 121.348H219.509L218.416 119.413C218.396 119.377 218.362 119.351 218.321 119.341C218.281 119.33 218.238 119.337 218.203 119.358L214.942 121.348H209.765C209.257 121.348 208.845 121.754 208.845 122.252V122.839C208.845 122.872 208.847 122.903 208.85 122.936V128.207C208.85 128.93 209.448 129.518 210.183 129.518H221.3C221.385 129.518 221.453 129.451 221.453 129.368V127.564H222.085C222.288 127.564 222.479 127.486 222.622 127.345C222.766 127.204 222.845 127.016 222.845 126.817V126.145C222.845 125.946 222.766 125.758 222.622 125.617C222.479 125.475 222.288 125.398 222.085 125.398ZM218.227 119.696L220.345 123.445H217.493C217.42 122.973 217.005 122.61 216.505 122.61C216.005 122.61 215.591 122.973 215.517 123.445H212.085L218.227 119.696ZM217.184 123.445H215.826C215.896 123.139 216.173 122.91 216.505 122.91C216.836 122.909 217.114 123.139 217.184 123.445ZM209.765 121.648H214.452L211.507 123.445H209.765C209.444 123.445 209.182 123.201 209.155 122.891V122.76C209.155 122.751 209.151 122.742 209.149 122.734V122.253C209.149 121.919 209.426 121.648 209.765 121.648ZM221.148 129.218H210.184C209.616 129.218 209.155 128.764 209.155 128.206V123.515C209.317 123.657 209.531 123.744 209.765 123.744L221.148 123.744V125.398H219.675C219.591 125.398 219.523 125.465 219.523 125.548V127.414C219.523 127.497 219.591 127.564 219.675 127.564H221.149L221.148 129.218ZM222.541 126.817C222.541 126.937 222.493 127.049 222.407 127.134C222.321 127.218 222.207 127.265 222.085 127.265L219.828 127.265V125.697H222.085C222.204 125.697 222.322 125.745 222.407 125.828C222.493 125.913 222.541 126.025 222.541 126.145V126.817Z" fill="#394508"/>
<path d="M111.851 82.4488V79.0049H110.424V82.4488C110.424 82.521 110.369 82.5792 110.303 82.5792C110.236 82.5792 110.181 82.521 110.181 82.4488V78.8746C110.181 78.8023 110.236 78.7442 110.303 78.7442H111.968C112 78.7442 112.031 78.7577 112.053 78.7821C112.076 78.8066 112.089 78.8397 112.089 78.8746V82.4488C112.089 82.521 112.035 82.5792 111.968 82.5792C111.901 82.5792 111.847 82.521 111.847 82.4488H111.851ZM113.094 77.337V82.4488C113.094 82.521 113.149 82.5792 113.215 82.5792C113.282 82.5792 113.336 82.521 113.336 82.4488V77.4661H114.764L114.764 82.4488C114.764 82.521 114.818 82.5792 114.885 82.5792C114.952 82.5792 115.006 82.521 115.006 82.4488V77.337C115.006 77.3021 114.994 77.2691 114.971 77.2446C114.948 77.2201 114.917 77.2067 114.885 77.2067H113.219C113.187 77.2048 113.155 77.2183 113.131 77.2428C113.108 77.2672 113.094 77.3015 113.094 77.337ZM116.122 82.5811C116.154 82.5811 116.185 82.5676 116.207 82.5431C116.23 82.5186 116.243 82.485 116.243 82.4507V72.1567H117.671L117.67 82.449C117.67 82.5212 117.725 82.5793 117.792 82.5793C117.858 82.5793 117.913 82.5212 117.913 82.449V72.0264C117.913 71.9915 117.9 71.9584 117.877 71.934C117.855 71.9095 117.823 71.8954 117.792 71.8954H116.126C116.06 71.8954 116.005 71.9542 116.005 72.0264V82.449C116.005 82.4839 116.018 82.5175 116.041 82.542C116.064 82.5665 116.095 82.58 116.128 82.5793L116.122 82.5811ZM120.71 73.5423H119.045C118.978 73.5423 118.924 73.6011 118.924 73.6727V82.4488C118.924 82.521 118.978 82.5792 119.045 82.5792C119.112 82.5792 119.166 82.521 119.166 82.4488V73.7988H120.59V82.4488C120.59 82.521 120.645 82.5792 120.712 82.5792C120.778 82.5792 120.833 82.521 120.833 82.4488V73.6727C120.833 73.6378 120.82 73.6047 120.797 73.5802C120.774 73.5551 120.743 73.5417 120.71 73.5423ZM120.71 83.0756H110.296C110.262 83.0713 110.228 83.0829 110.202 83.108C110.177 83.1325 110.162 83.168 110.162 83.2053C110.162 83.2426 110.177 83.2781 110.202 83.3026C110.228 83.3277 110.262 83.3394 110.296 83.3351H120.71C120.744 83.3394 120.779 83.3277 120.804 83.3026C120.83 83.2781 120.845 83.2426 120.845 83.2053C120.845 83.168 120.83 83.1325 120.804 83.108C120.779 83.0829 120.744 83.0713 120.71 83.0756ZM108.845 74.1513C108.844 73.4046 109.119 72.6885 109.608 72.161C110.097 71.6328 110.761 71.3359 111.453 71.3359C112.146 71.3353 112.809 71.6316 113.299 72.1591C113.789 72.6867 114.064 73.4028 114.064 74.1489C114.065 74.8956 113.789 75.611 113.3 76.1386C112.811 76.6668 112.146 76.963 111.454 76.963C110.762 76.963 110.099 76.6662 109.61 76.1392C109.121 75.6122 108.845 74.8969 108.845 74.1513ZM109.087 74.1513C109.087 74.8282 109.336 75.4776 109.78 75.9563C110.224 76.4349 110.827 76.7036 111.454 76.7036C112.082 76.7036 112.685 76.4349 113.129 75.9563C113.573 75.4777 113.822 74.8283 113.822 74.1513C113.822 73.4744 113.573 72.825 113.129 72.3463C112.685 71.8671 112.082 71.5984 111.454 71.5984C110.827 71.5984 110.224 71.8671 109.78 72.3457C109.335 72.8243 109.086 73.4737 109.086 74.1512L109.087 74.1513ZM110.543 73.3973C110.543 72.9713 110.889 72.6169 111.334 72.5631V72.2087C111.334 72.1371 111.388 72.0783 111.454 72.0783C111.521 72.0783 111.575 72.1371 111.575 72.2087V72.5631C111.897 72.5912 112.179 72.8042 112.315 73.1194C112.329 73.1519 112.33 73.1898 112.318 73.2235C112.306 73.2565 112.282 73.2834 112.25 73.2969C112.22 73.3104 112.185 73.3098 112.154 73.2945C112.124 73.2798 112.101 73.2516 112.09 73.2174C111.994 72.9982 111.799 72.8495 111.575 72.8256V73.9879C112.02 74.0436 112.366 74.3974 112.366 74.8234C112.366 75.2493 112.02 75.6037 111.575 75.6588V76.0119C111.575 76.0836 111.521 76.1423 111.454 76.1423C111.387 76.1423 111.334 76.0836 111.334 76.0119V75.6594C111.017 75.6306 110.737 75.4244 110.599 75.1159C110.577 75.0516 110.605 74.98 110.663 74.9525C110.722 74.9304 110.787 74.9598 110.814 75.021C110.913 75.2346 111.106 75.3791 111.326 75.4048V74.2358C110.888 74.177 110.543 73.8245 110.543 73.3973ZM111.576 74.2523V75.395C111.887 75.3442 112.124 75.108 112.124 74.8221C112.124 74.5363 111.887 74.3013 111.576 74.2523ZM110.786 73.3973C110.786 73.6831 111.022 73.9194 111.334 73.9702V72.8275C111.021 72.8764 110.786 73.1133 110.786 73.3973Z" fill="#394508"/>
<path d="M210.718 42.2851C210.261 41.6812 209.565 41.3359 208.81 41.3359C208.105 41.3359 207.439 41.6455 206.981 42.1864C206.935 42.2392 206.942 42.3191 206.996 42.365C207.049 42.4093 207.129 42.4041 207.175 42.3497C207.583 41.8666 208.18 41.5894 208.81 41.5894C209.485 41.5894 210.107 41.899 210.516 42.4382C210.541 42.4705 210.579 42.4875 210.616 42.4875C210.643 42.4875 210.669 42.479 210.693 42.462C210.749 42.4195 210.759 42.3395 210.718 42.2851Z" fill="#394508"/>
<path d="M206.858 42.5687C206.797 42.5364 206.72 42.5585 206.688 42.6197C206.506 42.9582 206.411 43.3443 206.411 43.7339V45.2817C206.411 45.3515 206.467 45.4076 206.537 45.4076C206.606 45.4076 206.662 45.3515 206.662 45.2817V43.7339C206.662 43.3852 206.747 43.0399 206.911 42.7388C206.943 42.6775 206.919 42.601 206.858 42.5687Z" fill="#394508"/>
<path d="M211.081 45.4038C211.151 45.4038 211.207 45.3477 211.207 45.278V43.7335C211.207 43.3763 211.131 43.0344 210.981 42.718C210.95 42.6551 210.875 42.6278 210.813 42.6585C210.75 42.6891 210.722 42.7639 210.753 42.8269C210.887 43.1092 210.955 43.4154 210.955 43.7352V45.2797C210.955 45.3477 211.012 45.4038 211.081 45.4038Z" fill="#394508"/>
<path d="M210.576 45.956C210.645 45.956 210.702 45.8998 210.702 45.8301V43.7311C210.702 43.362 210.596 43.0065 210.397 42.702C210.353 42.6323 210.305 42.5693 210.256 42.5115C209.894 42.0845 209.366 41.8379 208.81 41.8379C208.691 41.8379 208.574 41.8481 208.461 41.8702C208.393 41.8838 208.347 41.9502 208.361 42.0182C208.375 42.0862 208.441 42.1305 208.509 42.1186C208.606 42.0999 208.708 42.0897 208.812 42.0897C209.293 42.0897 209.751 42.3023 210.067 42.6748C210.111 42.7258 210.15 42.7785 210.188 42.8381C210.361 43.1017 210.453 43.4113 210.453 43.7311V45.8284C210.45 45.8998 210.506 45.956 210.576 45.956Z" fill="#394508"/>
<path d="M207.043 45.9574C207.112 45.9574 207.168 45.9013 207.168 45.8316V43.7309C207.168 43.1032 207.534 42.5232 208.099 42.2544C208.162 42.2238 208.189 42.149 208.158 42.086C208.128 42.0231 208.053 41.9959 207.99 42.0265C207.337 42.3378 206.917 43.0063 206.917 43.7309V45.8316C206.915 45.9013 206.973 45.9574 207.043 45.9574Z" fill="#394508"/>
<path d="M207.672 43.7339C207.672 43.1079 208.183 42.5976 208.809 42.5976C209.203 42.5976 209.562 42.7983 209.771 43.1368C209.809 43.1964 209.887 43.2151 209.945 43.1777C210.004 43.1402 210.023 43.0637 209.986 43.0042C209.731 42.5925 209.29 42.3459 208.809 42.3459C208.043 42.3459 207.421 42.9684 207.421 43.7339V44.2203C207.421 44.2901 207.477 44.3462 207.547 44.3462C207.616 44.3462 207.672 44.2901 207.672 44.2203V43.7339Z" fill="#394508"/>
<path d="M207.547 46.2918C207.616 46.2918 207.672 46.2356 207.672 46.1659V44.6316C207.672 44.5619 207.616 44.5057 207.547 44.5057C207.477 44.5057 207.421 44.5619 207.421 44.6316V46.1659C207.421 46.2356 207.477 46.2918 207.547 46.2918Z" fill="#394508"/>
<path d="M210.071 46.2905C210.14 46.2905 210.197 46.2344 210.197 46.1647V43.7323C210.197 43.6319 210.186 43.5384 210.168 43.4533C210.152 43.3853 210.086 43.3427 210.018 43.3563C209.95 43.3717 209.907 43.438 209.921 43.506C209.936 43.5741 209.943 43.6489 209.943 43.7306V46.1613C209.945 46.2344 210.001 46.2905 210.071 46.2905Z" fill="#394508"/>
<path d="M212.787 48.0492C212.565 47.9403 212.297 47.9352 212.071 48.0322V48.0067C212.071 47.9811 212.059 47.9556 212.046 47.9352C212.008 47.7838 211.932 47.6427 211.818 47.5287C211.573 47.2838 211.188 47.2106 210.872 47.345V47.214C210.872 47.0218 210.763 46.8432 210.571 46.7275C210.494 46.6799 210.408 46.6425 210.314 46.617C210.107 46.5642 209.872 46.5659 209.673 46.6272V45.8975C209.685 45.8788 209.693 45.8566 209.693 45.8345V43.9226C209.693 43.8171 209.675 43.7185 209.641 43.6266C209.601 43.5195 209.542 43.4191 209.47 43.3392C209.171 42.9956 208.611 42.9479 208.251 43.2388C208.196 43.283 208.188 43.3613 208.232 43.4157C208.276 43.4701 208.355 43.4786 208.409 43.4344C208.669 43.2252 209.064 43.2575 209.28 43.5059C209.331 43.5637 209.374 43.6351 209.402 43.7151C209.413 43.744 209.421 43.7729 209.426 43.8035L209.425 43.8018C209.423 43.8001 209.423 43.8001 209.419 43.7967C209.256 43.6334 209.038 43.545 208.809 43.545C208.783 43.545 208.756 43.5467 208.732 43.5518C208.521 43.5688 208.329 43.6606 208.19 43.8035C208.191 43.795 208.191 43.7865 208.193 43.7763C208.208 43.7083 208.166 43.6402 208.098 43.6249C208.03 43.6096 207.962 43.6521 207.946 43.7202C207.931 43.7882 207.923 43.8563 207.923 43.9226V45.8328C207.923 45.8566 207.931 45.8788 207.943 45.8975V48.7109L207.863 48.5544C207.679 48.1989 207.312 47.976 206.914 47.976C206.742 47.976 206.574 48.0186 206.422 48.0968C206.171 48.2278 205.983 48.4506 205.897 48.7228C205.808 48.9932 205.834 49.2824 205.965 49.5358L207.664 52.8153C207.681 52.8459 207.701 52.8783 207.717 52.8987C207.969 53.3477 208.338 53.727 208.78 53.9924C209.239 54.268 209.765 54.4108 210.302 54.4108C210.843 54.4108 211.37 54.2645 211.831 53.9873C212.275 53.7202 212.641 53.3409 212.9 52.8817C212.9 52.88 212.901 52.8766 212.901 52.8749C213.141 52.4377 213.267 51.9427 213.267 51.4443V48.8248C213.267 48.5952 213.179 48.3775 213.015 48.2159C212.952 48.1478 212.876 48.0951 212.787 48.0492ZM213.019 51.4426C213.019 51.9019 212.905 52.351 212.685 52.7507C212.685 52.7524 212.684 52.7524 212.684 52.7558C212.451 53.1742 212.114 53.5263 211.704 53.7713C210.865 54.2782 209.753 54.2782 208.913 53.7764C208.509 53.5348 208.171 53.1878 207.933 52.766C207.917 52.7456 207.906 52.7235 207.892 52.6997L206.193 49.4202C206.092 49.228 206.074 49.0068 206.14 48.7993C206.206 48.5901 206.349 48.42 206.541 48.3196C206.657 48.2618 206.786 48.2295 206.917 48.2295C207.223 48.2295 207.501 48.3979 207.642 48.6717L207.962 49.2875C207.987 49.3385 208.047 49.3657 208.103 49.3538C208.159 49.3385 208.198 49.2875 208.198 49.2297V44.4091C208.198 44.2152 208.288 44.04 208.431 43.9294C208.535 43.8461 208.666 43.7984 208.81 43.7984C208.817 43.7984 208.827 43.7984 208.836 43.8001C208.965 43.8018 209.088 43.8478 209.19 43.9311C209.207 43.943 209.226 43.9583 209.243 43.977C209.358 44.091 209.421 44.2441 209.421 44.4091V48.5221C209.421 48.5935 209.477 48.6479 209.547 48.6479C209.615 48.6479 209.673 48.5918 209.673 48.5221V46.8959C209.841 46.8245 210.059 46.8109 210.248 46.8602C210.319 46.8772 210.382 46.9061 210.437 46.9402C210.552 47.0116 210.619 47.1085 210.619 47.2123V49.1174C210.619 49.1888 210.676 49.2433 210.744 49.2433C210.816 49.2433 210.87 49.1871 210.87 49.1174V47.6307C211.107 47.476 211.438 47.5049 211.638 47.7073C211.748 47.8179 211.811 47.9641 211.816 48.1206V49.7127C211.816 49.7842 211.872 49.8386 211.942 49.8386C212.01 49.8386 212.068 49.7825 212.068 49.7127V48.3196C212.245 48.2006 212.476 48.1785 212.677 48.2771C212.738 48.3043 212.791 48.3452 212.838 48.3911C212.952 48.5068 213.015 48.6615 213.015 48.8231V51.4426H213.019Z" fill="#394508"/>
<path d="M80.284 191.24C79.1373 191.24 78.1693 190.987 77.38 190.48C76.5907 189.968 75.9933 189.261 75.588 188.36C75.1827 187.459 74.98 186.419 74.98 185.24C74.98 184.061 75.1827 183.021 75.588 182.12C75.9933 181.219 76.5907 180.515 77.38 180.008C78.1693 179.496 79.1373 179.24 80.284 179.24C81.6227 179.24 82.716 179.584 83.564 180.272C84.412 180.955 84.9933 181.872 85.308 183.024L84.108 183.336C83.8627 182.424 83.4227 181.701 82.788 181.168C82.1533 180.635 81.3187 180.368 80.284 180.368C79.3827 180.368 78.6333 180.573 78.036 180.984C77.4387 181.395 76.988 181.968 76.684 182.704C76.3853 183.435 76.2307 184.28 76.22 185.24C76.2147 186.2 76.3613 187.045 76.66 187.776C76.964 188.507 77.4173 189.08 78.02 189.496C78.628 189.907 79.3827 190.112 80.284 190.112C81.3187 190.112 82.1533 189.845 82.788 189.312C83.4227 188.773 83.8627 188.051 84.108 187.144L85.308 187.456C84.9933 188.608 84.412 189.528 83.564 190.216C82.716 190.899 81.6227 191.24 80.284 191.24ZM90.7291 191.24C89.8865 191.24 89.1558 191.053 88.5371 190.68C87.9238 190.307 87.4465 189.781 87.1051 189.104C86.7638 188.427 86.5931 187.632 86.5931 186.72C86.5931 185.776 86.7611 184.96 87.0971 184.272C87.4331 183.584 87.9051 183.053 88.5131 182.68C89.1265 182.307 89.8491 182.12 90.6811 182.12C91.5345 182.12 92.2625 182.317 92.8651 182.712C93.4678 183.101 93.9238 183.661 94.2331 184.392C94.5425 185.123 94.6838 185.995 94.6571 187.008H93.4571V186.592C93.4358 185.472 93.1931 184.627 92.7291 184.056C92.2705 183.485 91.5985 183.2 90.7131 183.2C89.7851 183.2 89.0731 183.501 88.5771 184.104C88.0865 184.707 87.8411 185.565 87.8411 186.68C87.8411 187.768 88.0865 188.613 88.5771 189.216C89.0731 189.813 89.7745 190.112 90.6811 190.112C91.2998 190.112 91.8385 189.971 92.2971 189.688C92.7611 189.4 93.1265 188.987 93.3931 188.448L94.4891 188.872C94.1478 189.624 93.6438 190.208 92.9771 190.624C92.3158 191.035 91.5665 191.24 90.7291 191.24ZM87.4251 187.008V186.024H94.0251V187.008H87.4251ZM102.438 191V186.592C102.438 186.112 102.393 185.672 102.302 185.272C102.211 184.867 102.065 184.515 101.862 184.216C101.665 183.912 101.406 183.677 101.086 183.512C100.771 183.347 100.387 183.264 99.9341 183.264C99.5181 183.264 99.1501 183.336 98.8301 183.48C98.5155 183.624 98.2488 183.832 98.0301 184.104C97.8168 184.371 97.6541 184.696 97.5421 185.08C97.4301 185.464 97.3741 185.901 97.3741 186.392L96.5421 186.208C96.5421 185.323 96.6968 184.579 97.0061 183.976C97.3155 183.373 97.7421 182.917 98.2861 182.608C98.8301 182.299 99.4541 182.144 100.158 182.144C100.675 182.144 101.126 182.224 101.51 182.384C101.899 182.544 102.227 182.76 102.494 183.032C102.766 183.304 102.985 183.616 103.15 183.968C103.315 184.315 103.435 184.685 103.51 185.08C103.585 185.469 103.622 185.859 103.622 186.248V191H102.438ZM96.1901 191V182.36H97.2541V184.488H97.3741V191H96.1901ZM110.402 191C109.917 191.101 109.437 191.141 108.962 191.12C108.493 191.099 108.071 190.997 107.698 190.816C107.33 190.635 107.05 190.352 106.858 189.968C106.703 189.648 106.618 189.325 106.602 189C106.591 188.669 106.586 188.293 106.586 187.872V179.96H107.754V187.824C107.754 188.187 107.757 188.491 107.762 188.736C107.773 188.976 107.829 189.189 107.93 189.376C108.122 189.733 108.426 189.947 108.842 190.016C109.263 190.085 109.783 190.069 110.402 189.968V191ZM104.738 183.368V182.36H110.402V183.368H104.738ZM112.104 191V182.36H113.16V184.44L112.952 184.168C113.048 183.912 113.174 183.677 113.328 183.464C113.483 183.245 113.651 183.067 113.832 182.928C114.056 182.731 114.318 182.581 114.616 182.48C114.915 182.373 115.216 182.312 115.52 182.296C115.824 182.275 116.102 182.296 116.352 182.36V183.464C116.038 183.384 115.694 183.365 115.32 183.408C114.947 183.451 114.603 183.6 114.288 183.856C114 184.08 113.784 184.349 113.64 184.664C113.496 184.973 113.4 185.304 113.352 185.656C113.304 186.003 113.28 186.347 113.28 186.688V191H112.104ZM120.014 191.24C119.363 191.24 118.817 191.123 118.374 190.888C117.937 190.653 117.609 190.341 117.39 189.952C117.171 189.563 117.062 189.139 117.062 188.68C117.062 188.211 117.155 187.811 117.342 187.48C117.534 187.144 117.793 186.869 118.118 186.656C118.449 186.443 118.83 186.28 119.262 186.168C119.699 186.061 120.182 185.968 120.71 185.888C121.243 185.803 121.763 185.731 122.27 185.672C122.782 185.608 123.23 185.547 123.614 185.488L123.198 185.744C123.214 184.891 123.049 184.259 122.702 183.848C122.355 183.437 121.753 183.232 120.894 183.232C120.302 183.232 119.801 183.365 119.39 183.632C118.985 183.899 118.699 184.32 118.534 184.896L117.39 184.56C117.587 183.787 117.985 183.187 118.582 182.76C119.179 182.333 119.955 182.12 120.91 182.12C121.699 182.12 122.369 182.269 122.918 182.568C123.473 182.861 123.865 183.288 124.094 183.848C124.201 184.099 124.27 184.379 124.302 184.688C124.334 184.997 124.35 185.312 124.35 185.632V191H123.302V188.832L123.606 188.96C123.313 189.701 122.857 190.267 122.238 190.656C121.619 191.045 120.878 191.24 120.014 191.24ZM120.15 190.224C120.699 190.224 121.179 190.125 121.59 189.928C122.001 189.731 122.331 189.461 122.582 189.12C122.833 188.773 122.995 188.384 123.07 187.952C123.134 187.675 123.169 187.371 123.174 187.04C123.179 186.704 123.182 186.453 123.182 186.288L123.63 186.52C123.23 186.573 122.795 186.627 122.326 186.68C121.862 186.733 121.403 186.795 120.95 186.864C120.502 186.933 120.097 187.016 119.734 187.112C119.489 187.181 119.251 187.28 119.022 187.408C118.793 187.531 118.603 187.696 118.454 187.904C118.31 188.112 118.238 188.371 118.238 188.68C118.238 188.931 118.299 189.173 118.422 189.408C118.55 189.643 118.753 189.837 119.03 189.992C119.313 190.147 119.686 190.224 120.15 190.224ZM126.593 191V179.24H127.769V191H126.593ZM130.327 180.72V179.4H131.503V180.72H130.327ZM130.327 191V182.36H131.503V191H130.327ZM133.101 191V190.752L138.677 183.456H133.517V182.36H140.613V182.632L135.045 189.904H140.309V191H133.101ZM145.385 191.24C144.543 191.24 143.812 191.053 143.193 190.68C142.58 190.307 142.103 189.781 141.761 189.104C141.42 188.427 141.249 187.632 141.249 186.72C141.249 185.776 141.417 184.96 141.753 184.272C142.089 183.584 142.561 183.053 143.169 182.68C143.783 182.307 144.505 182.12 145.337 182.12C146.191 182.12 146.919 182.317 147.521 182.712C148.124 183.101 148.58 183.661 148.889 184.392C149.199 185.123 149.34 185.995 149.313 187.008H148.113V186.592C148.092 185.472 147.849 184.627 147.385 184.056C146.927 183.485 146.255 183.2 145.369 183.2C144.441 183.2 143.729 183.501 143.233 184.104C142.743 184.707 142.497 185.565 142.497 186.68C142.497 187.768 142.743 188.613 143.233 189.216C143.729 189.813 144.431 190.112 145.337 190.112C145.956 190.112 146.495 189.971 146.953 189.688C147.417 189.4 147.783 188.987 148.049 188.448L149.145 188.872C148.804 189.624 148.3 190.208 147.633 190.624C146.972 191.035 146.223 191.24 145.385 191.24ZM142.081 187.008V186.024H148.681V187.008H142.081ZM157.036 191V186.176L153.172 179.48H154.532L157.628 184.832L160.708 179.48H162.068L158.22 186.176V191H157.036ZM165.509 191.24C164.651 191.24 163.917 191.045 163.309 190.656C162.701 190.267 162.235 189.728 161.909 189.04C161.584 188.352 161.421 187.563 161.421 186.672C161.421 185.765 161.587 184.971 161.917 184.288C162.248 183.605 162.717 183.075 163.325 182.696C163.939 182.312 164.667 182.12 165.509 182.12C166.373 182.12 167.109 182.315 167.717 182.704C168.331 183.088 168.797 183.624 169.117 184.312C169.443 184.995 169.605 185.781 169.605 186.672C169.605 187.579 169.443 188.376 169.117 189.064C168.792 189.747 168.323 190.28 167.709 190.664C167.096 191.048 166.363 191.24 165.509 191.24ZM165.509 190.112C166.469 190.112 167.184 189.795 167.653 189.16C168.123 188.52 168.357 187.691 168.357 186.672C168.357 185.627 168.12 184.795 167.645 184.176C167.176 183.557 166.464 183.248 165.509 183.248C164.864 183.248 164.331 183.395 163.909 183.688C163.493 183.976 163.181 184.379 162.973 184.896C162.771 185.408 162.669 186 162.669 186.672C162.669 187.712 162.909 188.547 163.389 189.176C163.869 189.8 164.576 190.112 165.509 190.112ZM174.674 191.216C174.157 191.216 173.703 191.136 173.314 190.976C172.93 190.816 172.602 190.6 172.33 190.328C172.063 190.056 171.847 189.747 171.682 189.4C171.517 189.048 171.397 188.677 171.322 188.288C171.247 187.893 171.21 187.501 171.21 187.112V182.36H172.394V186.768C172.394 187.243 172.439 187.683 172.53 188.088C172.621 188.493 172.765 188.848 172.962 189.152C173.165 189.451 173.423 189.683 173.738 189.848C174.058 190.013 174.445 190.096 174.898 190.096C175.314 190.096 175.679 190.024 175.994 189.88C176.314 189.736 176.581 189.531 176.794 189.264C177.013 188.992 177.178 188.664 177.29 188.28C177.402 187.891 177.458 187.453 177.458 186.968L178.29 187.152C178.29 188.037 178.135 188.781 177.826 189.384C177.517 189.987 177.09 190.443 176.546 190.752C176.002 191.061 175.378 191.216 174.674 191.216ZM177.578 191V188.872H177.458V182.36H178.634V191H177.578ZM180.87 191V182.36H181.926V184.44L181.718 184.168C181.814 183.912 181.939 183.677 182.094 183.464C182.249 183.245 182.417 183.067 182.598 182.928C182.822 182.731 183.083 182.581 183.382 182.48C183.681 182.373 183.982 182.312 184.286 182.296C184.59 182.275 184.867 182.296 185.118 182.36V183.464C184.803 183.384 184.459 183.365 184.086 183.408C183.713 183.451 183.369 183.6 183.054 183.856C182.766 184.08 182.55 184.349 182.406 184.664C182.262 184.973 182.166 185.304 182.118 185.656C182.07 186.003 182.046 186.347 182.046 186.688V191H180.87ZM189.839 191V179.48H196.455V180.656H191.015V184.656H195.495V185.824H191.015V191H189.839ZM198.061 180.72V179.4H199.237V180.72H198.061ZM198.061 191V182.36H199.237V191H198.061ZM207.876 191V186.592C207.876 186.112 207.83 185.672 207.74 185.272C207.649 184.867 207.502 184.515 207.3 184.216C207.102 183.912 206.844 183.677 206.524 183.512C206.209 183.347 205.825 183.264 205.372 183.264C204.956 183.264 204.588 183.336 204.268 183.48C203.953 183.624 203.686 183.832 203.468 184.104C203.254 184.371 203.092 184.696 202.98 185.08C202.868 185.464 202.812 185.901 202.812 186.392L201.98 186.208C201.98 185.323 202.134 184.579 202.444 183.976C202.753 183.373 203.18 182.917 203.724 182.608C204.268 182.299 204.892 182.144 205.596 182.144C206.113 182.144 206.564 182.224 206.948 182.384C207.337 182.544 207.665 182.76 207.932 183.032C208.204 183.304 208.422 183.616 208.588 183.968C208.753 184.315 208.873 184.685 208.948 185.08C209.022 185.469 209.06 185.859 209.06 186.248V191H207.876ZM201.628 191V182.36H202.692V184.488H202.812V191H201.628ZM213.608 191.24C212.957 191.24 212.41 191.123 211.968 190.888C211.53 190.653 211.202 190.341 210.984 189.952C210.765 189.563 210.656 189.139 210.656 188.68C210.656 188.211 210.749 187.811 210.936 187.48C211.128 187.144 211.386 186.869 211.712 186.656C212.042 186.443 212.424 186.28 212.856 186.168C213.293 186.061 213.776 185.968 214.304 185.888C214.837 185.803 215.357 185.731 215.864 185.672C216.376 185.608 216.824 185.547 217.208 185.488L216.792 185.744C216.808 184.891 216.642 184.259 216.296 183.848C215.949 183.437 215.346 183.232 214.488 183.232C213.896 183.232 213.394 183.365 212.984 183.632C212.578 183.899 212.293 184.32 212.128 184.896L210.984 184.56C211.181 183.787 211.578 183.187 212.176 182.76C212.773 182.333 213.549 182.12 214.504 182.12C215.293 182.12 215.962 182.269 216.512 182.568C217.066 182.861 217.458 183.288 217.688 183.848C217.794 184.099 217.864 184.379 217.896 184.688C217.928 184.997 217.944 185.312 217.944 185.632V191H216.896V188.832L217.2 188.96C216.906 189.701 216.45 190.267 215.832 190.656C215.213 191.045 214.472 191.24 213.608 191.24ZM213.744 190.224C214.293 190.224 214.773 190.125 215.184 189.928C215.594 189.731 215.925 189.461 216.176 189.12C216.426 188.773 216.589 188.384 216.664 187.952C216.728 187.675 216.762 187.371 216.768 187.04C216.773 186.704 216.776 186.453 216.776 186.288L217.224 186.52C216.824 186.573 216.389 186.627 215.92 186.68C215.456 186.733 214.997 186.795 214.544 186.864C214.096 186.933 213.69 187.016 213.328 187.112C213.082 187.181 212.845 187.28 212.616 187.408C212.386 187.531 212.197 187.696 212.048 187.904C211.904 188.112 211.832 188.371 211.832 188.68C211.832 188.931 211.893 189.173 212.016 189.408C212.144 189.643 212.346 189.837 212.624 189.992C212.906 190.147 213.28 190.224 213.744 190.224ZM226.266 191V186.592C226.266 186.112 226.221 185.672 226.13 185.272C226.04 184.867 225.893 184.515 225.69 184.216C225.493 183.912 225.234 183.677 224.914 183.512C224.6 183.347 224.216 183.264 223.762 183.264C223.346 183.264 222.978 183.336 222.658 183.48C222.344 183.624 222.077 183.832 221.858 184.104C221.645 184.371 221.482 184.696 221.37 185.08C221.258 185.464 221.202 185.901 221.202 186.392L220.37 186.208C220.37 185.323 220.525 184.579 220.834 183.976C221.144 183.373 221.57 182.917 222.114 182.608C222.658 182.299 223.282 182.144 223.986 182.144C224.504 182.144 224.954 182.224 225.338 182.384C225.728 182.544 226.056 182.76 226.322 183.032C226.594 183.304 226.813 183.616 226.978 183.968C227.144 184.315 227.264 184.685 227.338 185.08C227.413 185.469 227.45 185.859 227.45 186.248V191H226.266ZM220.018 191V182.36H221.082V184.488H221.202V191H220.018ZM233.063 191.24C232.194 191.24 231.458 191.045 230.855 190.656C230.253 190.267 229.794 189.731 229.479 189.048C229.17 188.36 229.01 187.571 228.999 186.68C229.01 185.773 229.175 184.979 229.495 184.296C229.815 183.608 230.277 183.075 230.879 182.696C231.482 182.312 232.213 182.12 233.071 182.12C233.946 182.12 234.706 182.333 235.351 182.76C236.002 183.187 236.447 183.771 236.687 184.512L235.535 184.88C235.333 184.363 235.01 183.963 234.567 183.68C234.13 183.392 233.629 183.248 233.063 183.248C232.429 183.248 231.903 183.395 231.487 183.688C231.071 183.976 230.762 184.379 230.559 184.896C230.357 185.413 230.253 186.008 230.247 186.68C230.258 187.715 230.498 188.547 230.967 189.176C231.437 189.8 232.135 190.112 233.063 190.112C233.65 190.112 234.149 189.979 234.559 189.712C234.975 189.44 235.29 189.045 235.503 188.528L236.687 188.88C236.367 189.648 235.898 190.235 235.279 190.64C234.661 191.04 233.922 191.24 233.063 191.24ZM241.76 191.24C240.918 191.24 240.187 191.053 239.568 190.68C238.955 190.307 238.478 189.781 238.136 189.104C237.795 188.427 237.624 187.632 237.624 186.72C237.624 185.776 237.792 184.96 238.128 184.272C238.464 183.584 238.936 183.053 239.544 182.68C240.158 182.307 240.88 182.12 241.712 182.12C242.566 182.12 243.294 182.317 243.896 182.712C244.499 183.101 244.955 183.661 245.264 184.392C245.574 185.123 245.715 185.995 245.688 187.008H244.488V186.592C244.467 185.472 244.224 184.627 243.76 184.056C243.302 183.485 242.63 183.2 241.744 183.2C240.816 183.2 240.104 183.501 239.608 184.104C239.118 184.707 238.872 185.565 238.872 186.68C238.872 187.768 239.118 188.613 239.608 189.216C240.104 189.813 240.806 190.112 241.712 190.112C242.331 190.112 242.87 189.971 243.328 189.688C243.792 189.4 244.158 188.987 244.424 188.448L245.52 188.872C245.179 189.624 244.675 190.208 244.008 190.624C243.347 191.035 242.598 191.24 241.76 191.24ZM238.456 187.008V186.024H245.056V187.008H238.456ZM250.688 191.232C249.674 191.232 248.84 191.013 248.184 190.576C247.533 190.139 247.133 189.531 246.984 188.752L248.184 188.552C248.312 189.043 248.602 189.435 249.056 189.728C249.514 190.016 250.08 190.16 250.752 190.16C251.408 190.16 251.925 190.024 252.304 189.752C252.682 189.475 252.872 189.099 252.872 188.624C252.872 188.357 252.81 188.141 252.688 187.976C252.57 187.805 252.328 187.648 251.96 187.504C251.592 187.36 251.042 187.189 250.312 186.992C249.528 186.779 248.914 186.565 248.472 186.352C248.029 186.139 247.714 185.893 247.528 185.616C247.341 185.333 247.248 184.989 247.248 184.584C247.248 184.093 247.386 183.664 247.664 183.296C247.941 182.923 248.325 182.635 248.816 182.432C249.306 182.224 249.877 182.12 250.528 182.12C251.178 182.12 251.76 182.227 252.272 182.44C252.789 182.648 253.205 182.941 253.52 183.32C253.834 183.699 254.021 184.139 254.08 184.64L252.88 184.856C252.8 184.349 252.546 183.949 252.12 183.656C251.698 183.357 251.162 183.203 250.512 183.192C249.898 183.176 249.4 183.293 249.016 183.544C248.632 183.789 248.44 184.117 248.44 184.528C248.44 184.757 248.509 184.955 248.648 185.12C248.786 185.28 249.037 185.432 249.4 185.576C249.768 185.72 250.29 185.877 250.968 186.048C251.762 186.251 252.386 186.464 252.84 186.688C253.293 186.912 253.616 187.176 253.808 187.48C254 187.784 254.096 188.16 254.096 188.608C254.096 189.424 253.792 190.067 253.184 190.536C252.581 191 251.749 191.232 250.688 191.232Z" fill="#394508"/>
</svg>
