<svg width="335" height="159" viewBox="0 0 335 159" fill="none" xmlns="http://www.w3.org/2000/svg">
<path d="M88.5788 41.6757C88.5788 41.9082 88.526 42.1513 88.4203 42.4049C88.1455 43.0813 87.6065 43.5622 86.8033 43.8475C87.2261 43.9215 87.6065 44.0483 87.9447 44.228C88.7796 44.6718 89.1971 45.3482 89.1971 46.2571C89.1971 46.7961 89.0332 47.2928 88.7056 47.7472C88.0715 48.6032 87.0675 49.0312 85.6937 49.0312H81.0014V48.6191H82.2695V39.932H81.0014V39.5198H85.5986C86.2855 39.5198 86.8773 39.6361 87.374 39.8686C88.1772 40.249 88.5788 40.8514 88.5788 41.6757ZM85.1071 39.932H83.7914V43.6573H85.1071C85.4982 43.6573 85.8416 43.5674 86.1375 43.3878C86.6977 43.0602 86.9777 42.5318 86.9777 41.8025C86.9777 41.6757 86.9671 41.5489 86.946 41.4221C86.8192 40.4287 86.2062 39.932 85.1071 39.932ZM85.44 44.0853H83.7914V48.6191H85.4559C85.9209 48.6191 86.3225 48.487 86.6607 48.2228C87.2208 47.7789 87.5008 47.1237 87.5008 46.2571C87.5008 45.9189 87.4427 45.6018 87.3265 45.3059C87.0094 44.4922 86.3806 44.0853 85.44 44.0853ZM92.741 48.6349C92.7939 48.6349 92.8467 48.6402 92.8995 48.6508C93.0475 48.6719 93.1215 48.7987 93.1215 49.0312H89.3327V48.6349C89.6815 48.6349 89.9404 48.6085 90.1095 48.5557C90.3949 48.4606 90.5375 48.1752 90.5375 47.6996V39.1235H89.3327V38.7272H91.885V48.6349H92.741ZM94.668 45.6388C94.6786 47.7208 95.3444 48.7723 96.6654 48.7935C97.9442 48.7829 98.5889 47.7102 98.5994 45.5754C98.5889 43.5463 97.9336 42.5212 96.6337 42.5001C95.3338 42.5106 94.6786 43.5569 94.668 45.6388ZM96.6813 42.1037C97.4316 42.1037 98.1027 42.3045 98.6946 42.7061C99.6457 43.3614 100.121 44.3337 100.121 45.623C100.121 46.5953 99.8148 47.4143 99.2018 48.0801C98.5255 48.8199 97.6641 49.1898 96.6179 49.1898C95.857 49.1898 95.17 48.9678 94.5571 48.524C93.6271 47.8476 93.1621 46.8648 93.1621 45.5754C93.1621 44.6348 93.458 43.8422 94.0498 43.1976C94.7367 42.4683 95.6139 42.1037 96.6813 42.1037ZM101.858 45.6388C101.869 47.7208 102.534 48.7723 103.855 48.7935C105.134 48.7829 105.779 47.7102 105.789 45.5754C105.779 43.5463 105.124 42.5212 103.824 42.5001C102.524 42.5106 101.869 43.5569 101.858 45.6388ZM103.871 42.1037C104.622 42.1037 105.293 42.3045 105.885 42.7061C106.836 43.3614 107.311 44.3337 107.311 45.623C107.311 46.5953 107.005 47.4143 106.392 48.0801C105.715 48.8199 104.854 49.1898 103.808 49.1898C103.047 49.1898 102.36 48.9678 101.747 48.524C100.817 47.8476 100.352 46.8648 100.352 45.5754C100.352 44.6348 100.648 43.8422 101.24 43.1976C101.927 42.4683 102.804 42.1037 103.871 42.1037ZM110.507 48.6349C110.559 48.6349 110.612 48.6402 110.665 48.6508C110.813 48.6719 110.887 48.7987 110.887 49.0312H107.384V48.6349C107.69 48.6349 107.923 48.6138 108.081 48.5715C108.377 48.4764 108.525 48.1858 108.525 47.6996V42.6744H107.384V42.2781H109.793L109.857 43.7524C109.952 43.541 110.063 43.3402 110.189 43.15C110.697 42.4525 111.352 42.1037 112.155 42.1037C112.356 42.1037 112.551 42.1407 112.742 42.2147C113.376 42.4578 113.793 42.9756 113.994 43.7682C114.047 43.6414 114.105 43.5199 114.168 43.4036C114.665 42.537 115.357 42.1037 116.245 42.1037C116.615 42.1037 116.958 42.1989 117.275 42.3891C117.984 42.833 118.338 43.5886 118.338 44.656V48.6349H119.083C119.146 48.6349 119.199 48.6402 119.241 48.6508C119.4 48.6719 119.479 48.7987 119.479 49.0312H115.96V48.6349C116.277 48.6349 116.509 48.6085 116.657 48.5557C116.879 48.4606 116.99 48.1752 116.99 47.6996V44.4975C116.99 44.1698 116.943 43.8792 116.847 43.6256C116.636 43.0655 116.266 42.7854 115.738 42.7854C115.558 42.7854 115.373 42.833 115.183 42.9281C114.633 43.2028 114.274 43.726 114.105 44.4975V44.6718V48.6349H114.723C114.787 48.6349 114.839 48.6402 114.882 48.6508C115.04 48.6719 115.12 48.7987 115.12 49.0312H111.727V48.6349C112.044 48.6349 112.277 48.6085 112.425 48.5557C112.636 48.4606 112.742 48.1752 112.742 47.6996V44.4975C112.742 44.2015 112.705 43.9321 112.631 43.689C112.44 43.1077 112.092 42.8171 111.584 42.8171C111.31 42.8171 111.04 42.9175 110.776 43.1183C110.195 43.5516 109.894 44.228 109.872 45.1474V48.6349H110.507ZM122.627 48.6349C122.69 48.6349 122.743 48.6402 122.785 48.6508C122.944 48.6719 123.023 48.7987 123.023 49.0312H119.329V48.6349C119.646 48.6349 119.884 48.6138 120.043 48.5715C120.37 48.4764 120.534 48.1858 120.534 47.6996V42.6744H119.329V42.2781H121.882V48.6349H122.627ZM122.056 40.0112C122.056 40.1486 122.024 40.286 121.961 40.4234C121.792 40.7721 121.517 40.9465 121.137 40.9465C120.999 40.9465 120.867 40.9201 120.74 40.8673C120.381 40.6982 120.201 40.4128 120.201 40.0112C120.201 39.8738 120.233 39.7364 120.296 39.5991C120.465 39.2503 120.745 39.0759 121.137 39.0759C121.274 39.0759 121.411 39.1076 121.549 39.171C121.887 39.3507 122.056 39.6308 122.056 40.0112ZM126.075 48.6349C126.139 48.6349 126.192 48.6402 126.234 48.6508C126.393 48.6719 126.472 48.7987 126.472 49.0312H122.937V48.6349C123.243 48.6349 123.476 48.6138 123.634 48.5715C123.93 48.4764 124.078 48.1858 124.078 47.6996V42.6744H122.937V42.2781H125.346L125.41 43.7682C125.515 43.504 125.658 43.2663 125.838 43.0549C126.356 42.4208 127.005 42.1037 127.788 42.1037C128.157 42.1037 128.506 42.1936 128.834 42.3732C129.595 42.796 129.975 43.5622 129.975 44.6718V48.6349H130.72C130.784 48.6349 130.836 48.6402 130.879 48.6508C131.037 48.6719 131.117 48.7987 131.117 49.0312H127.534V48.6349C127.84 48.6349 128.068 48.6085 128.216 48.5557C128.49 48.4606 128.628 48.1752 128.628 47.6996V44.4975C128.628 44.2227 128.591 43.969 128.517 43.7365C128.305 43.1236 127.877 42.8171 127.233 42.8171C126.958 42.8171 126.683 42.9016 126.408 43.0707C125.774 43.4935 125.447 44.1857 125.426 45.1474V48.6349H126.075ZM132.695 44.6401C132.695 44.7352 132.695 44.8304 132.695 44.9255C132.758 46.1937 133.255 46.8278 134.185 46.8278C135.073 46.7644 135.564 46.0351 135.659 44.6401C135.659 44.4499 135.654 44.2755 135.643 44.117C135.538 43.039 135.052 42.5001 134.185 42.5001C134.111 42.5001 134.037 42.5053 133.963 42.5159C133.118 42.611 132.695 43.3191 132.695 44.6401ZM134.201 42.1037C134.793 42.1037 135.332 42.2358 135.818 42.5001C135.871 42.3098 135.955 42.1302 136.071 41.9611C136.378 41.4855 136.779 41.2477 137.276 41.2477C137.403 41.2477 137.525 41.2688 137.641 41.3111C137.979 41.4379 138.148 41.6757 138.148 42.0245C138.148 42.0562 138.143 42.0985 138.132 42.1513C138.079 42.4155 137.921 42.5476 137.657 42.5476C137.551 42.5476 137.44 42.4948 137.324 42.3891C137.144 42.22 136.98 42.1354 136.832 42.1354C136.547 42.1672 136.325 42.368 136.166 42.7378C136.758 43.2028 137.06 43.8317 137.07 44.6243C137.07 45.2372 136.875 45.7762 136.484 46.2412C135.913 46.8965 135.141 47.2241 134.169 47.2241H134.122L132.711 47.2082C132.626 47.2082 132.547 47.2188 132.473 47.2399C132.156 47.3033 131.997 47.4671 131.997 47.7314C132.008 48.1012 132.24 48.302 132.695 48.3337L135.659 48.3972C135.807 48.3972 135.95 48.4077 136.087 48.4289C137.155 48.5662 137.688 49.1052 137.688 50.0458C137.688 50.3417 137.604 50.6218 137.435 50.886C136.917 51.668 135.844 52.0591 134.217 52.0591C133.572 52.0591 133.022 51.9639 132.568 51.7737C131.87 51.4884 131.522 51.0551 131.522 50.4738C131.522 50.1145 131.691 49.7499 132.029 49.38C131.596 49.1052 131.374 48.6878 131.363 48.1277C131.363 47.9691 131.384 47.8159 131.427 47.6679C131.617 47.0973 132.04 46.8119 132.695 46.8119C132.61 46.7591 132.52 46.7009 132.425 46.6375C131.664 46.0986 131.284 45.4328 131.284 44.6401C131.284 44.0483 131.469 43.5305 131.839 43.0866C132.399 42.4314 133.186 42.1037 134.201 42.1037ZM134.217 51.6469C134.724 51.6469 135.189 51.5993 135.612 51.5042C136.489 51.2929 136.927 50.9494 136.927 50.4738C136.927 50.3576 136.906 50.2466 136.864 50.1409C136.737 49.845 136.304 49.6918 135.564 49.6812L132.964 49.6495C132.785 49.6495 132.6 49.6231 132.409 49.5702C132.188 49.845 132.071 50.1198 132.061 50.3946C132.061 50.5425 132.098 50.6905 132.172 50.8384C132.457 51.3774 133.139 51.6469 134.217 51.6469Z" fill="#619111"/>
<g clip-path="url(#clip0_2152_423)">
<path d="M53.3762 42.1725V42.2516C53.3547 40.0952 54.1956 37.9748 55.7698 36.4007C57.3295 34.841 59.414 34 61.5487 34H66.1849C68.3196 34 70.3969 34.841 71.9566 36.3935C73.5236 37.9677 74.3574 40.0809 74.3365 42.2444V42.1653V46.8014V46.7224C74.3581 48.8787 73.5171 50.9991 71.943 52.5732C70.3689 54.1473 68.2557 54.9811 66.0921 54.9667H66.1712H61.5351H61.6141C59.4578 54.9883 57.3374 54.1473 55.7633 52.5732C54.1892 50.9991 53.3554 48.8859 53.3698 46.7224V46.8014L53.377 42.1725H53.3762ZM53.6206 44.142C53.5991 44.0557 53.5775 43.9766 53.5631 43.8904C53.5775 43.9766 53.5991 44.0629 53.6206 44.142C53.6422 44.2282 53.6566 44.3073 53.6637 44.4007C53.6422 44.3145 53.635 44.2282 53.6206 44.142ZM53.3762 42.3594C53.3762 42.4097 53.3762 42.4528 53.3834 42.496C53.3834 42.4528 53.3834 42.4097 53.3762 42.3594ZM53.3834 42.6181C53.3834 42.6685 53.3906 42.7116 53.3906 42.7547C53.3906 42.7116 53.3834 42.6613 53.3834 42.6181ZM53.3978 42.8697C53.405 42.9128 53.405 42.9632 53.4122 42.9991C53.4122 42.9632 53.405 42.92 53.3978 42.8697ZM53.5056 43.6388C53.5128 43.6819 53.52 43.7323 53.5344 43.7682C53.5272 43.7323 53.5128 43.6819 53.5056 43.6388ZM68.9665 38.8517C68.564 37.9461 68.0034 37.1339 67.2918 36.4223C66.4508 35.5813 65.4373 34.9344 64.3304 34.5319C64.0285 34.4169 63.6979 34.4169 63.3888 34.5319C62.2819 34.9344 61.2612 35.5813 60.4274 36.4223C59.7159 37.1339 59.1552 37.9461 58.7527 38.8517C58.6952 38.9739 58.8174 39.0961 58.9396 39.053C60.4059 38.5642 62.0088 38.4924 63.5182 38.8733C63.741 38.9308 63.971 38.9308 64.1938 38.8733C65.7033 38.4995 67.3061 38.5642 68.7725 39.053C68.9018 39.1033 69.024 38.9811 68.9665 38.8517ZM74.0627 44.4007C74.0698 44.3145 74.0842 44.2282 74.1058 44.142C74.1273 44.0557 74.1489 43.9766 74.1633 43.8904C74.1417 43.9766 74.1273 44.0557 74.1058 44.142C74.077 44.2282 74.0698 44.3145 74.0627 44.4007ZM74.3286 42.5031C74.3286 42.4528 74.3358 42.4097 74.3358 42.3666C74.3286 42.4097 74.3286 42.4528 74.3286 42.5031ZM74.228 43.5094C74.2352 43.4663 74.2423 43.4232 74.2495 43.38C74.2423 43.4304 74.2352 43.4735 74.228 43.5094ZM74.2999 43.0063C74.307 42.9632 74.307 42.9128 74.3142 42.8769C74.307 42.92 74.2999 42.9632 74.2999 43.0063ZM74.3214 42.7547C74.3214 42.7044 74.3286 42.6613 74.3286 42.6181C74.3286 42.6613 74.3214 42.7116 74.3214 42.7547ZM74.0914 44.832C74.113 44.9182 74.1345 44.9973 74.1489 45.0836C74.1345 44.9973 74.113 44.911 74.0914 44.832C74.0698 44.7457 74.0555 44.6667 74.0483 44.5732C74.0698 44.6595 74.077 44.7457 74.0914 44.832ZM74.3365 46.6145C74.3365 46.5642 74.3365 46.5211 74.3293 46.478C74.3293 46.5211 74.3293 46.5642 74.3365 46.6145ZM74.3286 46.3558C74.3286 46.3055 74.3214 46.2623 74.3214 46.2192C74.3214 46.2623 74.3286 46.3127 74.3286 46.3558ZM74.3142 46.1042C74.307 46.0611 74.307 46.0108 74.2999 45.9748C74.2999 46.0108 74.307 46.0539 74.3142 46.1042ZM74.2495 45.5867C74.2423 45.5436 74.2352 45.5004 74.228 45.4573C74.2352 45.5076 74.2423 45.5436 74.2495 45.5867ZM74.2064 45.3351C74.1992 45.292 74.192 45.2417 74.1777 45.2057C74.1848 45.2417 74.1992 45.292 74.2064 45.3351ZM69.4697 44.142C69.4122 44.3648 69.4122 44.5948 69.4697 44.8176C69.8434 46.327 69.7787 47.9299 69.29 49.3962C69.2468 49.5256 69.3762 49.6406 69.4912 49.5831C70.3969 49.1806 71.2091 48.6199 71.9207 47.9083C72.7617 47.0674 73.4086 46.0539 73.8111 44.947C73.9261 44.6451 73.9261 44.3145 73.8111 44.0054C73.4086 42.8985 72.7617 41.8778 71.9207 41.044C71.2091 40.3324 70.3969 39.7718 69.4912 39.3693C69.369 39.3118 69.2468 39.434 69.29 39.5562C69.7787 41.044 69.8362 42.6325 69.4697 44.142ZM64.201 54.7224C64.2873 54.7439 64.3663 54.7655 64.4526 54.7799C64.3663 54.7655 64.2801 54.7439 64.201 54.7224C64.1148 54.7008 64.0357 54.6864 63.9423 54.6792C64.0285 54.7008 64.1148 54.708 64.201 54.7224ZM65.9836 54.9667C65.9333 54.9667 65.8902 54.9667 65.847 54.9596C65.8902 54.9596 65.9333 54.9596 65.9836 54.9667ZM65.7248 54.9596C65.6745 54.9596 65.6314 54.9524 65.5883 54.9524C65.6314 54.9524 65.6817 54.9596 65.7248 54.9596ZM65.4733 54.9452C65.4301 54.938 65.3798 54.938 65.3439 54.9308C65.3798 54.9308 65.4229 54.938 65.4733 54.9452ZM64.7042 54.8374C64.661 54.8302 64.6107 54.823 64.5748 54.8086C64.6107 54.8158 64.661 54.8302 64.7042 54.8374ZM63.7698 54.6936C63.6835 54.7008 63.5973 54.7152 63.511 54.7367C63.4247 54.7583 63.3457 54.7799 63.2594 54.7942C63.3457 54.7727 63.4247 54.7583 63.511 54.7367C63.5973 54.708 63.6835 54.7008 63.7698 54.6936ZM61.8722 54.9596C61.8219 54.9596 61.7787 54.9667 61.7356 54.9667C61.7787 54.9596 61.8219 54.9596 61.8722 54.9596ZM62.8785 54.8589C62.8353 54.8661 62.7922 54.8733 62.7491 54.8805C62.7994 54.8733 62.8425 54.8661 62.8785 54.8589ZM62.3753 54.9308C62.3322 54.938 62.2819 54.938 62.2459 54.9452C62.2891 54.938 62.3322 54.9308 62.3753 54.9308ZM62.1238 54.9524C62.0734 54.9524 62.0303 54.9596 61.9872 54.9596C62.0303 54.9596 62.0806 54.9524 62.1238 54.9524ZM58.7455 50.1222C59.148 51.0278 59.7087 51.8401 60.4203 52.5517C61.2612 53.3926 62.2747 54.0395 63.3816 54.442C63.6835 54.557 64.0141 54.557 64.3232 54.442C65.4301 54.0395 66.4508 53.3926 67.2846 52.5517C67.9962 51.8401 68.5568 51.0207 68.9593 50.1222C69.0168 50 68.8946 49.8778 68.7725 49.9209C67.3061 50.4169 65.7033 50.4816 64.1938 50.1006C63.971 50.0431 63.741 50.0431 63.5182 50.1006C62.0088 50.4816 60.4059 50.4097 58.9396 49.9209C58.8102 49.8706 58.688 49.9928 58.7455 50.1222ZM58.5299 44.9542C58.9324 46.0611 59.5793 47.0818 60.4203 47.9155C61.2612 48.7565 62.2747 49.4034 63.3816 49.8059C63.6835 49.9209 64.0141 49.9209 64.3232 49.8059C65.4301 49.4034 66.4508 48.7565 67.2846 47.9155C68.1256 47.0818 68.7796 46.0683 69.175 44.9542C69.29 44.6523 69.29 44.3216 69.175 44.0126C68.7725 42.9057 68.1256 41.885 67.2846 41.0512C66.4436 40.2174 65.4301 39.5633 64.3232 39.1608C64.0213 39.0458 63.6907 39.0458 63.3816 39.1608C62.2747 39.5633 61.254 40.2102 60.4203 41.0512C59.5793 41.8922 58.9324 42.9057 58.5299 44.0126C58.4292 44.3216 58.4292 44.6523 58.5299 44.9542ZM53.9009 44.9542C54.3035 46.0611 54.9504 47.0818 55.7913 47.9155C56.5029 48.6271 57.3151 49.1878 58.2208 49.5903C58.343 49.6478 58.4652 49.5256 58.4221 49.4034C57.9333 47.9371 57.8614 46.3342 58.2424 44.8248C58.2999 44.602 58.2999 44.372 58.2424 44.1491C57.8686 42.6397 57.9333 41.0368 58.4221 39.5705C58.4652 39.4411 58.3358 39.3261 58.2208 39.3836C57.3151 39.7862 56.5029 40.3468 55.7913 41.0584C54.9504 41.8994 54.3035 42.9128 53.9009 44.0198C53.7931 44.3216 53.7931 44.6523 53.9009 44.9542ZM53.6494 44.5732C53.6422 44.6595 53.6278 44.7457 53.6062 44.832C53.5847 44.9182 53.5631 44.9973 53.5487 45.0836C53.5703 44.9973 53.5847 44.9182 53.6062 44.832C53.635 44.7457 53.6422 44.6595 53.6494 44.5732ZM53.3834 46.4708C53.3834 46.5211 53.3762 46.5642 53.3762 46.6074C53.3834 46.5642 53.3834 46.5211 53.3834 46.4708ZM53.4841 45.4645C53.4769 45.5076 53.4697 45.5508 53.4625 45.5939C53.4697 45.5436 53.4769 45.5076 53.4841 45.4645ZM53.4122 45.9677C53.405 46.0108 53.405 46.0611 53.3978 46.097C53.405 46.0539 53.4122 46.0108 53.4122 45.9677ZM53.3906 46.2192C53.3906 46.2695 53.3834 46.3127 53.3834 46.3558C53.3834 46.3127 53.3906 46.2623 53.3906 46.2192Z" fill="#619111"/>
</g>
<path d="M202.831 40.2181L197.128 51.0403H186.599L189.45 45.6292H196.744V40.2181H202.831ZM196.744 35.4837V40.2181H192.302L189.45 45.6292H186.599V35.4837H196.744Z" fill="#619111"/>
<path d="M213.02 50.4837V38.9584H217.159C218.545 38.9584 219.589 39.2073 220.292 39.7051C220.996 40.2029 221.348 40.9929 221.348 42.0751C221.348 42.5621 221.245 42.9895 221.039 43.3575C220.833 43.7254 220.53 44.0176 220.13 44.234C219.74 44.4397 219.275 44.5479 218.734 44.5587L218.718 44.4938C219.703 44.5154 220.466 44.786 221.007 45.3054C221.559 45.814 221.835 46.485 221.835 47.3183C221.835 48.368 221.483 49.158 220.779 49.6883C220.076 50.2186 219.075 50.4837 217.776 50.4837H213.02ZM214.773 48.9091H217.728C218.453 48.9091 219.015 48.763 219.416 48.4708C219.827 48.1678 220.033 47.7295 220.033 47.156C220.033 46.5932 219.827 46.1549 219.416 45.8411C219.015 45.5273 218.453 45.3703 217.728 45.3703H214.773V48.9091ZM214.773 43.8769H217.127C217.895 43.8769 218.491 43.7308 218.913 43.4386C219.335 43.1464 219.546 42.7352 219.546 42.2049C219.546 41.6422 219.34 41.2256 218.929 40.955C218.528 40.6736 217.928 40.533 217.127 40.533H214.773V43.8769ZM225.694 50.6785C224.828 50.6785 224.136 50.3917 223.616 49.8182C223.108 49.2338 222.853 48.4275 222.853 47.3995V41.8478H224.574V46.9612C224.574 47.7403 224.709 48.3139 224.98 48.6819C225.25 49.0498 225.662 49.2338 226.213 49.2338C226.841 49.2338 227.328 49.0336 227.674 48.6332C228.032 48.2219 228.21 47.6484 228.21 46.9125V41.8478H229.931V50.4837H228.324L228.291 48.2273L228.535 48.3247C228.383 49.0823 228.064 49.6666 227.577 50.0779C227.09 50.4783 226.462 50.6785 225.694 50.6785ZM231.185 50.4837V41.8478H232.905V50.4837H231.185ZM231.152 40.5979V38.8772H232.938V40.5979H231.152ZM236.12 50.4837C235.557 50.4837 235.103 50.3376 234.757 50.0454C234.41 49.7532 234.237 49.2879 234.237 48.6494V38.9584H235.958V48.4871C235.958 48.6819 236.007 48.828 236.104 48.9253C236.212 49.0227 236.364 49.0714 236.558 49.0714H237.24V50.4837H236.12ZM240.802 50.6785C240.066 50.6785 239.422 50.4945 238.87 50.1266C238.329 49.7586 237.912 49.2392 237.62 48.5682C237.339 47.8864 237.198 47.0856 237.198 46.1658C237.198 45.2459 237.344 44.4505 237.636 43.7795C237.928 43.0977 238.345 42.5729 238.886 42.2049C239.427 41.837 240.066 41.653 240.802 41.653C241.397 41.653 241.927 41.7775 242.392 42.0264C242.858 42.2753 243.209 42.6216 243.448 43.0653V38.9584H245.168V50.4837H243.561L243.512 49.1851C243.274 49.6504 242.912 50.0184 242.425 50.2889C241.949 50.5486 241.408 50.6785 240.802 50.6785ZM241.256 49.1851C241.721 49.1851 242.116 49.066 242.441 48.828C242.766 48.5899 243.015 48.2436 243.188 47.789C243.361 47.3345 243.448 46.7934 243.448 46.1658C243.448 45.5164 243.361 44.9699 243.188 44.5262C243.015 44.0717 242.766 43.7308 242.441 43.5036C242.116 43.2655 241.721 43.1464 241.256 43.1464C240.564 43.1464 240.012 43.417 239.6 43.9581C239.189 44.4884 238.984 45.2243 238.984 46.1658C238.984 47.0964 239.189 47.8323 239.6 48.3734C240.012 48.9145 240.564 49.1851 241.256 49.1851ZM246.529 50.4837V38.9584H251.123C251.945 38.9584 252.654 39.099 253.249 39.3804C253.845 39.6618 254.304 40.0622 254.629 40.5816C254.954 41.1011 255.116 41.718 255.116 42.4322C255.116 42.9516 254.997 43.417 254.759 43.8282C254.532 44.2395 254.223 44.5695 253.834 44.8184C253.455 45.0565 253.049 45.1918 252.616 45.2243L252.535 45.0782C253.26 45.0782 253.823 45.2459 254.223 45.5814C254.624 45.906 254.856 46.4201 254.921 47.1235L255.23 50.4837H253.46L253.184 47.3508C253.152 46.8854 252.995 46.5445 252.714 46.3281C252.432 46.1008 251.972 45.9872 251.334 45.9872H248.282V50.4837H246.529ZM248.282 44.3801H251.155C251.815 44.3801 252.335 44.2178 252.714 43.8932C253.103 43.5577 253.298 43.0869 253.298 42.4809C253.298 41.864 253.103 41.3933 252.714 41.0686C252.324 40.7332 251.756 40.5654 251.009 40.5654H248.282V44.3801ZM256.41 50.4837V41.8478H258.13V50.4837H256.41ZM256.377 40.5979V38.8772H258.163V40.5979H256.377ZM262.904 53.1134C262.223 53.1134 261.622 53.0106 261.102 52.805C260.583 52.5994 260.156 52.3072 259.82 51.9284C259.485 51.5605 259.257 51.1276 259.138 50.6298L260.924 50.5162C261.043 50.8733 261.249 51.1547 261.541 51.3603C261.844 51.5767 262.298 51.6849 262.904 51.6849C263.619 51.6849 264.165 51.5334 264.544 51.2304C264.933 50.9274 265.128 50.4675 265.128 49.8506V48.6007C264.923 49.0444 264.593 49.3961 264.138 49.6558C263.683 49.9156 263.175 50.0454 262.612 50.0454C261.887 50.0454 261.243 49.8669 260.68 49.5097C260.118 49.1526 259.679 48.6602 259.366 48.0325C259.052 47.4049 258.895 46.6798 258.895 45.8573C258.895 45.024 259.046 44.2936 259.349 43.6659C259.663 43.0382 260.096 42.5458 260.648 42.1887C261.211 41.8316 261.844 41.653 262.547 41.653C263.164 41.653 263.705 41.7937 264.17 42.0751C264.647 42.3564 264.988 42.7352 265.193 43.2114V41.8478H266.849V49.8019C266.849 50.5162 266.687 51.1168 266.362 51.6038C266.048 52.1016 265.594 52.4749 264.998 52.7238C264.414 52.9836 263.716 53.1134 262.904 53.1134ZM262.888 48.5845C263.559 48.5845 264.095 48.341 264.495 47.854C264.906 47.367 265.117 46.696 265.128 45.8411C265.139 45.2784 265.052 44.7968 264.868 44.3964C264.685 43.9851 264.419 43.6713 264.073 43.4549C263.738 43.2276 263.343 43.114 262.888 43.114C262.185 43.114 261.638 43.3629 261.249 43.8607C260.87 44.3477 260.68 45.0078 260.68 45.8411C260.68 46.6852 260.875 47.3562 261.265 47.854C261.665 48.341 262.206 48.5845 262.888 48.5845ZM268.111 50.4837V38.9584H269.831V43.7958L269.62 43.7633C269.718 43.2763 269.896 42.8813 270.156 42.5783C270.416 42.2645 270.735 42.0318 271.114 41.8803C271.492 41.7288 271.909 41.653 272.364 41.653C272.991 41.653 273.522 41.7937 273.954 42.0751C274.387 42.3456 274.712 42.7298 274.928 43.2276C275.156 43.7254 275.269 44.2936 275.269 44.9321V50.4837H273.549V45.3866C273.549 44.6074 273.413 44.0338 273.143 43.6659C272.883 43.2871 272.472 43.0977 271.909 43.0977C271.281 43.0977 270.778 43.298 270.399 43.6984C270.021 44.088 269.831 44.6615 269.831 45.419V50.4837H268.111ZM279.421 50.4837C278.598 50.4837 277.992 50.2943 277.603 49.9156C277.213 49.5368 277.018 48.947 277.018 48.1462V39.8187H278.739V48.0163C278.739 48.4167 278.825 48.6927 278.999 48.8442C279.172 48.9957 279.437 49.0714 279.794 49.0714H281.028V50.4837H279.421ZM275.703 43.2601V41.8478H281.028V43.2601H275.703Z" fill="#619111"/>
<path d="M25.6117 108.378C28.5998 111.367 28.5993 116.212 25.611 119.2C22.6228 122.188 17.7786 122.188 14.7904 119.2C11.8021 116.212 11.8015 111.367 14.7897 108.378C17.778 105.39 22.6234 105.39 25.6117 108.378ZM21.4398 108.952C20.7554 108.268 19.6459 108.268 18.9616 108.952L15.3644 112.549C14.6801 113.233 14.6801 114.343 15.3644 115.027L18.9616 118.624C19.6459 119.309 20.7554 119.309 21.4398 118.624L25.0369 115.027C25.7212 114.343 25.7212 113.233 25.0369 112.549L21.4398 108.952Z" fill="#619111"/>
<path d="M32.4513 119.789V107.842H34.2693V119.789H32.4513ZM33.317 114.837V113.175H39.8098V114.837H33.317ZM33.317 109.504V107.842H40.5024V109.504H33.317ZM41.3884 119.789V107.409H43.1198V119.789H41.3884ZM48.2355 119.962C47.416 119.962 46.6888 119.766 46.054 119.373C45.4307 118.981 44.9401 118.427 44.5823 117.711C44.2244 116.995 44.0455 116.159 44.0455 115.201C44.0455 114.231 44.2244 113.394 44.5823 112.69C44.9401 111.974 45.4307 111.42 46.054 111.028C46.6888 110.635 47.416 110.439 48.2355 110.439C49.0666 110.439 49.7938 110.635 50.4171 111.028C51.052 111.42 51.5483 111.974 51.9061 112.69C52.264 113.394 52.4429 114.231 52.4429 115.201C52.4429 116.159 52.264 116.995 51.9061 117.711C51.5483 118.427 51.052 118.981 50.4171 119.373C49.7938 119.766 49.0666 119.962 48.2355 119.962ZM48.2355 118.404C48.9627 118.404 49.5456 118.15 49.9843 117.642C50.4229 117.122 50.6422 116.309 50.6422 115.201C50.6422 114.092 50.4229 113.284 49.9843 112.777C49.5456 112.257 48.9627 111.997 48.2355 111.997C47.5199 111.997 46.9428 112.257 46.5041 112.777C46.0655 113.284 45.8462 114.092 45.8462 115.201C45.8462 116.309 46.0655 117.122 46.5041 117.642C46.9428 118.15 47.5199 118.404 48.2355 118.404ZM54.6685 119.789L52.4004 110.612H54.1491L56.2961 119.789H54.6685ZM55.6381 119.789L57.8024 110.612H59.2741L57.1271 119.789H55.6381ZM60.6246 119.789L58.4776 110.612H60.0359L62.2521 119.789H60.6246ZM61.5942 119.789L63.6719 110.612H65.3513L63.0832 119.789H61.5942ZM70.2439 119.962C69.2743 119.962 68.4952 119.616 67.9065 118.923C67.3178 118.219 67.0235 117.232 67.0235 115.962V114.439C67.0235 113.169 67.3178 112.188 67.9065 111.495C68.4952 110.791 69.2743 110.439 70.2439 110.439C70.9596 110.439 71.5886 110.63 72.1312 111.011C72.6852 111.391 73.1181 111.94 73.4297 112.655C73.7414 113.36 73.8972 114.208 73.8972 115.201C73.8972 116.193 73.7414 117.047 73.4297 117.763C73.1181 118.467 72.6852 119.01 72.1312 119.391C71.5886 119.772 70.9596 119.962 70.2439 119.962ZM65.7769 119.789V107.409H67.5083V112.725L67.2486 115.201L67.5083 117.659V119.789H65.7769ZM69.7591 118.438C70.4517 118.438 71.0115 118.184 71.4386 117.676C71.8772 117.157 72.0965 116.332 72.0965 115.201C72.0965 114.069 71.8772 113.25 71.4386 112.742C71.0115 112.223 70.4517 111.963 69.7591 111.963C69.0666 111.963 68.501 112.223 68.0623 112.742C67.6353 113.25 67.4217 114.069 67.4217 115.201C67.4217 116.332 67.6353 117.157 68.0623 117.676C68.501 118.184 69.0666 118.438 69.7591 118.438ZM78.542 119.962C77.7224 119.962 76.9952 119.766 76.3604 119.373C75.7371 118.981 75.2465 118.427 74.8887 117.711C74.5309 116.995 74.352 116.159 74.352 115.201C74.352 114.231 74.5309 113.394 74.8887 112.69C75.2465 111.974 75.7371 111.42 76.3604 111.028C76.9952 110.635 77.7224 110.439 78.542 110.439C79.373 110.439 80.1002 110.635 80.7235 111.028C81.3584 111.42 81.8547 111.974 82.2126 112.69C82.5704 113.394 82.7493 114.231 82.7493 115.201C82.7493 116.159 82.5704 116.995 82.2126 117.711C81.8547 118.427 81.3584 118.981 80.7235 119.373C80.1002 119.766 79.373 119.962 78.542 119.962ZM78.542 118.404C79.2692 118.404 79.8521 118.15 80.2907 117.642C80.7293 117.122 80.9486 116.309 80.9486 115.201C80.9486 114.092 80.7293 113.284 80.2907 112.777C79.8521 112.257 79.2692 111.997 78.542 111.997C77.8263 111.997 77.2492 112.257 76.8106 112.777C76.3719 113.284 76.1526 114.092 76.1526 115.201C76.1526 116.309 76.3719 117.122 76.8106 117.642C77.2492 118.15 77.8263 118.404 78.542 118.404ZM86.8622 119.962C85.9619 119.962 85.2578 119.725 84.7499 119.252C84.2535 118.767 84.0054 118.052 84.0054 117.105V108.708L85.7368 108.362V116.793C85.7368 117.324 85.8638 117.717 86.1177 117.971C86.3716 118.213 86.741 118.334 87.2258 118.334C87.4567 118.334 87.6702 118.317 87.8664 118.282C88.0742 118.248 88.2762 118.207 88.4724 118.161V119.789C88.23 119.847 87.9818 119.887 87.7279 119.91C87.4855 119.945 87.1969 119.962 86.8622 119.962ZM82.7068 112.119V110.612H88.3858V112.119H82.7068Z" fill="#619111"/>
<path d="M161.51 119.981V108.069H169.249V109.351H162.999V113.316H168.435V114.614H162.999V118.7H169.249V119.981H161.51ZM169.847 119.981L174.279 114.008L169.916 108.069H171.682L175.145 112.744H175.284L178.764 108.069H180.461L176.097 113.956L180.513 119.981H178.764L175.232 115.203H175.093L171.544 119.981H169.847ZM181.894 119.981V108.069H187.106C187.868 108.069 188.474 108.167 188.924 108.364C189.386 108.548 189.726 108.808 189.945 109.143C190.176 109.478 190.332 109.876 190.413 110.337C190.494 110.788 190.534 111.284 190.534 111.827C190.534 112.346 190.494 112.836 190.413 113.298C190.344 113.748 190.194 114.147 189.963 114.493C189.732 114.839 189.386 115.11 188.924 115.307C188.462 115.503 187.845 115.601 187.071 115.601H183.383V119.981H181.894ZM183.383 114.302H186.586C187.152 114.302 187.596 114.256 187.92 114.164C188.254 114.072 188.502 113.927 188.664 113.731C188.826 113.523 188.93 113.264 188.976 112.952C189.022 112.64 189.045 112.265 189.045 111.827C189.045 111.388 189.022 111.013 188.976 110.701C188.941 110.389 188.843 110.135 188.681 109.939C188.531 109.743 188.289 109.599 187.954 109.506C187.631 109.403 187.187 109.351 186.621 109.351H183.383V114.302ZM196.79 120.12C195.867 120.12 195.099 120.074 194.488 119.981C193.887 119.878 193.408 119.699 193.051 119.445C192.704 119.191 192.45 118.839 192.289 118.389C192.127 117.927 192.023 117.344 191.977 116.64C191.931 115.924 191.908 115.053 191.908 114.025C191.908 112.998 191.931 112.132 191.977 111.428C192.023 110.713 192.127 110.13 192.289 109.68C192.45 109.218 192.704 108.86 193.051 108.606C193.408 108.352 193.887 108.179 194.488 108.087C195.099 107.983 195.867 107.931 196.79 107.931C197.714 107.931 198.476 107.983 199.076 108.087C199.688 108.179 200.167 108.352 200.513 108.606C200.871 108.86 201.13 109.218 201.292 109.68C201.454 110.13 201.558 110.713 201.604 111.428C201.65 112.132 201.673 112.998 201.673 114.025C201.673 115.053 201.65 115.924 201.604 116.64C201.558 117.344 201.454 117.927 201.292 118.389C201.13 118.839 200.871 119.191 200.513 119.445C200.167 119.699 199.688 119.878 199.076 119.981C198.476 120.074 197.714 120.12 196.79 120.12ZM196.79 118.839C197.425 118.839 197.95 118.821 198.366 118.787C198.781 118.741 199.11 118.642 199.353 118.492C199.595 118.342 199.78 118.1 199.907 117.765C200.034 117.419 200.109 116.946 200.132 116.345C200.167 115.745 200.184 114.972 200.184 114.025C200.184 113.079 200.167 112.306 200.132 111.705C200.109 111.105 200.034 110.638 199.907 110.303C199.78 109.957 199.595 109.708 199.353 109.558C199.11 109.408 198.781 109.316 198.366 109.281C197.95 109.235 197.425 109.212 196.79 109.212C196.156 109.212 195.63 109.235 195.215 109.281C194.811 109.316 194.482 109.408 194.228 109.558C193.985 109.708 193.801 109.957 193.674 110.303C193.558 110.638 193.483 111.105 193.449 111.705C193.414 112.306 193.397 113.079 193.397 114.025C193.397 114.972 193.414 115.745 193.449 116.345C193.483 116.946 193.558 117.419 193.674 117.765C193.801 118.1 193.985 118.342 194.228 118.492C194.482 118.642 194.811 118.741 195.215 118.787C195.63 118.821 196.156 118.839 196.79 118.839ZM203.868 119.981V108.069H209.34C210.09 108.069 210.684 108.162 211.123 108.346C211.573 108.52 211.902 108.773 212.11 109.108C212.329 109.431 212.473 109.812 212.543 110.251C212.612 110.69 212.647 111.157 212.647 111.653C212.647 112.08 212.606 112.525 212.525 112.987C212.456 113.437 212.289 113.846 212.023 114.216C211.769 114.585 211.365 114.856 210.811 115.03L212.82 119.981H211.227L209.253 114.978L209.669 115.185C209.588 115.209 209.49 115.226 209.374 115.237C209.259 115.249 209.103 115.255 208.907 115.255H205.357V119.981H203.868ZM205.357 113.956H208.699C209.276 113.956 209.726 113.91 210.049 113.818C210.384 113.725 210.627 113.581 210.777 113.385C210.938 113.189 211.042 112.952 211.088 112.675C211.134 112.386 211.158 112.046 211.158 111.653C211.158 111.261 211.134 110.926 211.088 110.649C211.054 110.361 210.961 110.124 210.811 109.939C210.673 109.743 210.442 109.599 210.119 109.506C209.807 109.403 209.374 109.351 208.82 109.351H205.357V113.956Z" fill="#619111"/>
<path d="M153.502 108.355C153.989 108.636 154.288 109.155 154.289 109.717V117.865C154.289 118.427 153.989 118.947 153.502 119.228L151.788 120.217L145.657 116.678L139.528 120.216L137.816 119.228C137.329 118.947 137.029 118.428 137.029 117.865V109.717C137.029 109.155 137.329 108.636 137.816 108.355L139.525 107.367V107.368L145.657 110.909L151.789 107.368V107.365L153.502 108.355Z" fill="#619111"/>
<path d="M320.174 121.158C319.167 121.158 318.264 120.938 317.464 120.496C316.664 120.055 316.03 119.434 315.561 118.634C315.106 117.821 314.878 116.869 314.878 115.779C314.878 114.662 315.119 113.703 315.602 112.903C316.085 112.104 316.733 111.49 317.547 111.062C318.361 110.621 319.264 110.4 320.257 110.4C321.264 110.4 322.167 110.621 322.967 111.062C323.781 111.49 324.422 112.104 324.891 112.903C325.374 113.703 325.615 114.662 325.615 115.779C325.615 116.814 325.381 117.738 324.912 118.552C324.457 119.365 323.816 120.007 322.988 120.476C322.174 120.931 321.236 121.158 320.174 121.158ZM320.195 119.131C320.788 119.131 321.305 118.986 321.747 118.696C322.202 118.393 322.56 117.986 322.822 117.476C323.085 116.965 323.216 116.386 323.216 115.738C323.216 115.062 323.085 114.476 322.822 113.979C322.56 113.483 322.202 113.103 321.747 112.841C321.305 112.566 320.795 112.428 320.216 112.428C319.609 112.428 319.078 112.572 318.623 112.862C318.181 113.152 317.843 113.552 317.609 114.062C317.374 114.559 317.257 115.131 317.257 115.779C317.257 116.483 317.388 117.09 317.65 117.6C317.926 118.096 318.285 118.476 318.726 118.738C319.181 119 319.671 119.131 320.195 119.131Z" fill="#619111"/>
<path d="M307.596 121.162C306.576 121.162 305.7 120.92 304.969 120.438C304.252 119.941 303.693 119.286 303.293 118.472C302.907 117.659 302.714 116.748 302.714 115.741C302.714 114.748 302.907 113.852 303.293 113.052C303.693 112.238 304.259 111.597 304.99 111.128C305.721 110.645 306.59 110.404 307.596 110.404C308.314 110.404 308.983 110.555 309.603 110.859C310.224 111.148 310.727 111.576 311.114 112.142V106.431H313.472V120.914H311.176L311.114 119.362C310.783 119.914 310.307 120.355 309.686 120.686C309.065 121.003 308.369 121.162 307.596 121.162ZM308.114 119.114C308.734 119.114 309.265 118.969 309.707 118.679C310.148 118.39 310.493 117.996 310.741 117.5C310.989 116.99 311.114 116.417 311.114 115.783C311.114 115.052 310.969 114.438 310.679 113.941C310.403 113.445 310.031 113.073 309.562 112.824C309.107 112.576 308.617 112.452 308.093 112.452C307.514 112.452 306.996 112.597 306.541 112.886C306.1 113.162 305.748 113.548 305.486 114.045C305.238 114.528 305.114 115.1 305.114 115.762C305.114 116.41 305.245 116.99 305.507 117.5C305.769 117.996 306.121 118.39 306.562 118.679C307.017 118.969 307.534 119.114 308.114 119.114Z" fill="#619111"/>
<path d="M296.753 121.158C295.719 121.158 294.815 120.931 294.043 120.476C293.271 120.007 292.664 119.372 292.222 118.572C291.795 117.758 291.581 116.827 291.581 115.779C291.581 114.69 291.795 113.745 292.222 112.945C292.664 112.145 293.271 111.524 294.043 111.083C294.829 110.628 295.74 110.4 296.774 110.4C297.781 110.4 298.657 110.621 299.401 111.062C300.146 111.49 300.732 112.083 301.16 112.841C301.588 113.6 301.801 114.462 301.801 115.428C301.801 115.621 301.794 115.793 301.781 115.945C301.781 116.096 301.767 116.262 301.739 116.441H293.94C293.981 116.979 294.119 117.462 294.353 117.89C294.588 118.303 294.905 118.627 295.305 118.862C295.719 119.096 296.188 119.214 296.712 119.214C297.277 119.214 297.753 119.089 298.139 118.841C298.539 118.593 298.85 118.234 299.07 117.765H301.532C301.339 118.386 301.029 118.952 300.601 119.462C300.188 119.972 299.657 120.386 299.008 120.703C298.374 121.007 297.622 121.158 296.753 121.158ZM293.96 114.807H299.401C299.388 114.048 299.119 113.448 298.595 113.007C298.07 112.566 297.443 112.345 296.712 112.345C296.05 112.345 295.45 112.545 294.912 112.945C294.388 113.345 294.071 113.966 293.96 114.807Z" fill="#619111"/>
<path d="M281.042 120.914V106.431H285.821C286.842 106.431 287.718 106.59 288.449 106.907C289.18 107.224 289.745 107.687 290.145 108.293C290.545 108.9 290.745 109.659 290.745 110.569C290.745 111.631 290.462 112.466 289.897 113.073C289.345 113.679 288.58 114.093 287.6 114.314L291.676 120.914H288.883L285.263 114.707H283.401V120.914H281.042ZM283.401 112.721H285.78C286.442 112.721 286.959 112.631 287.331 112.452C287.718 112.273 287.987 112.024 288.138 111.707C288.29 111.376 288.366 110.997 288.366 110.569C288.366 110.128 288.29 109.749 288.138 109.431C287.987 109.1 287.718 108.852 287.331 108.686C286.959 108.507 286.442 108.418 285.78 108.418H283.401V112.721Z" fill="#619111"/>
<path fill-rule="evenodd" clip-rule="evenodd" d="M267.36 112.718C265.729 112.718 264.407 114.04 264.407 115.672C264.407 117.303 265.729 118.625 267.36 118.625H277.651V120.912H267.36C264.466 120.912 262.12 118.566 262.12 115.672C262.12 112.778 264.466 110.431 267.36 110.431H275.078V112.718H267.36Z" fill="#619111"/>
<path fill-rule="evenodd" clip-rule="evenodd" d="M274.607 111.574L271.128 108.095L272.745 106.478L277.841 111.574L272.745 116.67L271.128 115.053L274.607 111.574Z" fill="#619111"/>
<defs>
<clipPath id="clip0_2152_423">
<rect width="20.9675" height="20.9675" fill="white" transform="matrix(-1 0 0 1 74.3369 34)"/>
</clipPath>
</defs>
</svg>
